<svg width="22" height="22" viewBox="0 0 22 22" fill="none" xmlns="http://www.w3.org/2000/svg">
<path fill-rule="evenodd" clip-rule="evenodd" d="M15.7696 16.7404C15.6218 16.8932 15.4215 16.9789 15.2127 16.9789C15.0039 16.9789 14.8036 16.8932 14.6559 16.7404L11.0102 12.9674L7.36447 16.7404C7.29233 16.8206 7.20534 16.8848 7.10868 16.9294C7.01202 16.974 6.90768 16.9979 6.80188 16.9999C6.69607 17.0018 6.59098 16.9817 6.49286 16.9406C6.39475 16.8996 6.30562 16.8386 6.23079 16.7611C6.15597 16.6837 6.09698 16.5915 6.05735 16.4899C6.01772 16.3884 5.99825 16.2796 6.00012 16.1701C6.00199 16.0606 6.02515 15.9526 6.06821 15.8526C6.11128 15.7526 6.17337 15.6625 6.25079 15.5879L10.4533 11.2385C10.6011 11.0858 10.8014 11 11.0102 11C11.219 11 11.4193 11.0858 11.567 11.2385L15.7696 15.5879C15.9171 15.7408 16 15.948 16 16.1642C16 16.3803 15.9171 16.5875 15.7696 16.7404Z" fill="#969696"/>
<path fill-rule="evenodd" clip-rule="evenodd" d="M15.7696 10.7404C15.6218 10.8932 15.4215 10.9789 15.2127 10.9789C15.0039 10.9789 14.8036 10.8932 14.6559 10.7404L11.0102 6.96737L7.36447 10.7404C7.29233 10.8206 7.20534 10.8848 7.10868 10.9294C7.01202 10.974 6.90768 10.9979 6.80188 10.9999C6.69607 11.0018 6.59098 10.9817 6.49286 10.9406C6.39475 10.8996 6.30562 10.8386 6.23079 10.7611C6.15597 10.6837 6.09698 10.5915 6.05735 10.4899C6.01772 10.3884 5.99825 10.2796 6.00012 10.1701C6.00199 10.0606 6.02515 9.95262 6.06821 9.85259C6.11128 9.75255 6.17337 9.66252 6.25079 9.58786L10.4533 5.2385C10.6011 5.08578 10.8014 5 11.0102 5C11.219 5 11.4193 5.08578 11.567 5.2385L15.7696 9.58786C15.9171 9.74077 16 9.94804 16 10.1642C16 10.3803 15.9171 10.5875 15.7696 10.7404Z" fill="#969696"/>
</svg>
