<svg width="18" height="14" viewBox="0 0 18 14" fill="none" xmlns="http://www.w3.org/2000/svg">
<path d="M7.20694 2.37361C7.59747 1.98309 7.59747 1.34992 7.20694 0.959397C6.81642 0.568873 6.18325 0.568873 5.79273 0.959397L0.459397 6.29273C0.264135 6.48799 0.166504 6.74391 0.166504 6.99984C0.166504 7.13543 0.193489 7.26471 0.242383 7.38262C0.291182 7.50057 0.363521 7.61107 0.459397 7.70694L5.79273 13.0403C6.18325 13.4308 6.81642 13.4308 7.20694 13.0403C7.59747 12.6498 7.59747 12.0166 7.20694 11.6261L3.58072 7.99984H16.4998C17.0521 7.99984 17.4998 7.55212 17.4998 6.99984C17.4998 6.44755 17.0521 5.99984 16.4998 5.99984H3.58072L7.20694 2.37361Z" fill="#313131"/>
</svg>
