<svg width="18" height="14" viewBox="0 0 18 14" fill="none" xmlns="http://www.w3.org/2000/svg">
<path d="M7.70743 2.37361C8.09796 1.98309 8.09796 1.34992 7.70743 0.959397C7.31691 0.568873 6.68374 0.568873 6.29322 0.959397L0.959885 6.29273C0.764623 6.48799 0.666992 6.74391 0.666992 6.99984C0.666992 7.13543 0.693978 7.26471 0.742871 7.38262C0.791671 7.50057 0.864009 7.61107 0.959885 7.70694L6.29322 13.0403C6.68374 13.4308 7.31691 13.4308 7.70743 13.0403C8.09796 12.6498 8.09796 12.0166 7.70743 11.6261L4.08121 7.99984H17.0003C17.5526 7.99984 18.0003 7.55212 18.0003 6.99984C18.0003 6.44755 17.5526 5.99984 17.0003 5.99984H4.08121L7.70743 2.37361Z" fill="#313131"/>
</svg>
