<svg width="18" height="20" viewBox="0 0 18 20" fill="none" xmlns="http://www.w3.org/2000/svg">
<path fill-rule="evenodd" clip-rule="evenodd" d="M8.41475 0.394983C8.79587 0.277844 9.20339 0.277844 9.58451 0.394983L12.5702 1.31265C14.1279 1.79139 15.6072 2.49525 16.9612 3.40191C18.0144 4.1071 17.5152 5.74984 16.2477 5.74984H1.75154C0.48409 5.74984 -0.0151076 4.1071 1.03805 3.40191C2.39208 2.49526 3.87137 1.79139 5.42901 1.31265L8.41475 0.394983ZM9.14383 1.82879C9.04987 1.79991 8.94939 1.79991 8.85543 1.82879L5.86969 2.74646C4.68889 3.10938 3.55754 3.61442 2.50033 4.24984H15.4989C14.4417 3.61442 13.3104 3.10938 12.1296 2.74646L9.14383 1.82879Z" fill="#313131"/>
<path d="M1.24963 18.9998C1.24963 18.5856 1.58542 18.2498 1.99963 18.2498H15.9996C16.4138 18.2498 16.7496 18.5856 16.7496 18.9998C16.7496 19.4141 16.4138 19.7498 15.9996 19.7498H1.99963C1.58542 19.7498 1.24963 19.4141 1.24963 18.9998Z" fill="#313131"/>
<path d="M3.24963 14.9998C3.24963 15.4141 3.58542 15.7498 3.99963 15.7498C4.41385 15.7498 4.74963 15.4141 4.74963 14.9998L4.74963 8.99985C4.74963 8.58563 4.41385 8.24985 3.99963 8.24985C3.58542 8.24985 3.24963 8.58563 3.24963 8.99985L3.24963 14.9998Z" fill="#313131"/>
<path d="M8.99963 15.7498C8.58542 15.7498 8.24963 15.4141 8.24963 14.9998L8.24963 8.99985C8.24963 8.58563 8.58542 8.24985 8.99963 8.24985C9.41385 8.24985 9.74963 8.58563 9.74963 8.99985V14.9998C9.74963 15.4141 9.41385 15.7498 8.99963 15.7498Z" fill="#313131"/>
<path d="M13.2496 14.9998C13.2496 15.4141 13.5854 15.7498 13.9996 15.7498C14.4138 15.7498 14.7496 15.4141 14.7496 14.9998V8.99985C14.7496 8.58563 14.4138 8.24985 13.9996 8.24985C13.5854 8.24985 13.2496 8.58563 13.2496 8.99985V14.9998Z" fill="#313131"/>
</svg>
