<svg width="24" height="23" viewBox="0 0 24 23" fill="none" xmlns="http://www.w3.org/2000/svg">
<path d="M21.3392 3.12516H5.2245L3.84762 0.657192C3.69308 0.380175 3.40071 0.208496 3.0835 0.208496H1.3335C0.850247 0.208496 0.458496 0.600247 0.458496 1.0835C0.458496 1.56675 0.850247 1.9585 1.3335 1.9585H2.5697L3.9285 4.39409L7.06226 11.3279L7.06547 11.3349L7.34149 11.9456L4.19517 15.3017C3.96894 15.543 3.89813 15.8913 4.01215 16.2018C4.12617 16.5123 4.40553 16.7319 4.73416 16.7695L7.60199 17.0973C11.1891 17.5072 14.8113 17.5072 18.3984 17.0973L21.2662 16.7695C21.7463 16.7146 22.0911 16.2809 22.0362 15.8008C21.9813 15.3207 21.5476 14.976 21.0675 15.0308L18.1997 15.3586C14.7446 15.7534 11.2558 15.7534 7.80069 15.3586L6.66259 15.2285L8.97186 12.7653C8.9942 12.7415 9.01495 12.7167 9.03411 12.6912L9.91239 12.8055C11.1431 12.9656 12.3872 12.997 13.6245 12.8991C16.5102 12.6709 19.1847 11.2978 21.0519 9.08575L21.7263 8.28679C21.7489 8.25996 21.77 8.23179 21.7892 8.20243L23.0462 6.28693C23.9371 4.92921 22.9631 3.12516 21.3392 3.12516Z" fill="#F79009"/>
<path d="M6.5835 18.5835C5.617 18.5835 4.8335 19.367 4.8335 20.3335C4.8335 21.3 5.617 22.0835 6.5835 22.0835C7.55 22.0835 8.3335 21.3 8.3335 20.3335C8.3335 19.367 7.55 18.5835 6.5835 18.5835Z" fill="#F79009"/>
<path d="M17.6668 20.3335C17.6668 19.367 18.4503 18.5835 19.4168 18.5835C20.3833 18.5835 21.1668 19.367 21.1668 20.3335C21.1668 21.3 20.3833 22.0835 19.4168 22.0835C18.4503 22.0835 17.6668 21.3 17.6668 20.3335Z" fill="#F79009"/>
</svg>
