<svg width="24" height="23" viewBox="0 0 24 23" fill="none" xmlns="http://www.w3.org/2000/svg">
<path fill-rule="evenodd" clip-rule="evenodd" d="M21.1724 3.12467H5.05775L3.68087 0.656704C3.52633 0.379687 3.23396 0.208008 2.91675 0.208008H1.16675C0.683499 0.208008 0.291748 0.599759 0.291748 1.08301C0.291748 1.56626 0.683499 1.95801 1.16675 1.95801H2.40295L3.76176 4.3936L6.89551 11.3274L6.89872 11.3344L7.17474 11.9452L4.02842 15.3012C3.80219 15.5425 3.73138 15.8908 3.8454 16.2013C3.95942 16.5118 4.23878 16.7315 4.56742 16.769L7.43524 17.0968C11.0224 17.5067 14.6445 17.5067 18.2316 17.0968L21.0995 16.769C21.5796 16.7141 21.9243 16.2804 21.8694 15.8003C21.8146 15.3202 21.3809 14.9755 20.9007 15.0303L18.0329 15.3581C14.5778 15.753 11.089 15.753 7.63395 15.3581L6.49584 15.228L8.80511 12.7648C8.82745 12.741 8.8482 12.7162 8.86736 12.6907L9.74564 12.805C10.9764 12.9651 12.2205 12.9965 13.4577 12.8986C16.3434 12.6704 19.0179 11.2973 20.8851 9.08526L21.5595 8.2863C21.5822 8.25947 21.6032 8.2313 21.6225 8.20194L22.8794 6.28645C23.7703 4.92872 22.7964 3.12467 21.1724 3.12467ZM8.9324 10.9344C8.73942 10.9093 8.57301 10.7867 8.49176 10.6101L8.4902 10.6066L5.89961 4.87467H21.1724C21.4044 4.87467 21.5436 5.13239 21.4163 5.32636L20.1883 7.19778L19.5479 7.95645C17.9822 9.81129 15.7395 10.9627 13.3197 11.1541C12.2037 11.2424 11.0816 11.214 9.97144 11.0696L8.9324 10.9344Z" fill="#969696"/>
<path d="M6.41675 18.583C5.45025 18.583 4.66675 19.3665 4.66675 20.333C4.66675 21.2995 5.45025 22.083 6.41675 22.083C7.38325 22.083 8.16675 21.2995 8.16675 20.333C8.16675 19.3665 7.38325 18.583 6.41675 18.583Z" fill="#969696"/>
<path d="M17.5001 20.333C17.5001 19.3665 18.2836 18.583 19.2501 18.583C20.2166 18.583 21.0001 19.3665 21.0001 20.333C21.0001 21.2995 20.2166 22.083 19.2501 22.083C18.2836 22.083 17.5001 21.2995 17.5001 20.333Z" fill="#969696"/>
</svg>
