<svg width="16" height="20" viewBox="0 0 16 20" fill="none" xmlns="http://www.w3.org/2000/svg">
<path fill-rule="evenodd" clip-rule="evenodd" d="M3.25002 5.24976V5.12988C3.25002 2.96214 4.71763 1.0694 6.81707 0.529541C7.59308 0.329997 8.40695 0.329997 9.18296 0.529541C11.2824 1.0694 12.75 2.96214 12.75 5.12988V5.24976H14.2511C14.8224 5.24976 15.3073 5.66874 15.3901 6.23398L15.6088 7.72644C16.0393 10.6649 16.0393 13.6504 15.6088 16.5889C15.4008 18.0079 14.2565 19.105 12.83 19.2529L12.2011 19.3181C9.40788 19.6078 6.59215 19.6078 3.79888 19.3181L3.17001 19.2529C1.74347 19.105 0.599184 18.0079 0.391267 16.5889C-0.0392766 13.6504 -0.0392763 10.6649 0.391267 7.72643L0.609941 6.23398C0.692761 5.66874 1.17761 5.24976 1.74889 5.24976H3.25002ZM7.19063 1.98228C7.72158 1.84575 8.27845 1.84575 8.8094 1.98228C10.2459 2.35166 11.25 3.64669 11.25 5.12988V5.24976H4.75002V5.12988C4.75002 3.64669 5.75417 2.35166 7.19063 1.98228ZM3.25002 6.74976V8.99975C3.25002 9.41397 3.5858 9.74975 4.00002 9.74975C4.41423 9.74975 4.75002 9.41397 4.75002 8.99975V6.74976H11.25V8.99975C11.25 9.41397 11.5858 9.74975 12 9.74975C12.4142 9.74975 12.75 9.41397 12.75 8.99975V6.74976H13.9496L14.1246 7.94389C14.534 10.7381 14.534 13.5772 14.1246 16.3714C14.0162 17.1115 13.4193 17.6837 12.6753 17.7609L12.0464 17.8261C9.35602 18.1051 6.644 18.1051 3.95361 17.8261L3.32474 17.7609C2.5807 17.6837 1.98386 17.1115 1.87542 16.3714C1.46601 13.5772 1.46601 10.7381 1.87542 7.94389L2.05039 6.74976H3.25002Z" fill="#313131"/>
</svg>
