<svg width="20" height="18" viewBox="0 0 20 18" fill="none" xmlns="http://www.w3.org/2000/svg">
<path fill-rule="evenodd" clip-rule="evenodd" d="M5.25009 3.63104V2.46126C5.25009 1.59501 5.88384 0.859119 6.7405 0.73062L7.96041 0.547633C9.31263 0.3448 10.6875 0.344799 12.0398 0.547633L13.2597 0.73062C14.1163 0.859119 14.7501 1.59501 14.7501 2.46126V3.63104L16.4641 3.76939C17.7765 3.87533 18.847 4.86347 19.0575 6.16319C19.5227 9.03572 19.5227 11.9644 19.0575 14.8369C18.847 16.1367 17.7765 17.1248 16.4641 17.2307L14.5922 17.3818C11.5358 17.6285 8.46441 17.6285 5.40796 17.3818L3.53605 17.2307C2.22366 17.1248 1.15312 16.1367 0.942641 14.8369C0.477453 11.9644 0.477453 9.03572 0.942641 6.16319C1.15312 4.86347 2.22366 3.87533 3.53605 3.76939L5.25009 3.63104ZM8.18292 2.03104C9.38763 1.85033 10.6126 1.85033 11.8173 2.03104L13.0372 2.21402C13.1596 2.23238 13.2501 2.33751 13.2501 2.46126V3.52586C11.0852 3.40239 8.915 3.40239 6.75009 3.52586V2.46126C6.75009 2.33751 6.84063 2.23238 6.96301 2.21402L8.18292 2.03104ZM5.52865 5.11343C8.50477 4.8732 11.4954 4.8732 14.4715 5.11343L16.3434 5.26453C16.9676 5.31491 17.4767 5.78485 17.5768 6.40298C17.6392 6.78791 17.6926 7.1739 17.7373 7.56066C12.8597 9.96246 7.14047 9.96246 2.26287 7.56067C2.30752 7.17391 2.36101 6.78791 2.42335 6.40298C2.52345 5.78485 3.03258 5.31491 3.65673 5.26453L5.52865 5.11343ZM2.12898 9.15672C7.12838 11.4304 12.8718 11.4304 17.8712 9.15672C17.9665 10.9729 17.8684 12.7967 17.5768 14.5971C17.4767 15.2153 16.9676 15.6852 16.3434 15.7356L14.4715 15.8867C11.4954 16.1269 8.50477 16.1269 5.52865 15.8867L3.65673 15.7356C3.03258 15.6852 2.52345 15.2153 2.42335 14.5971C2.13178 12.7967 2.03366 10.9729 2.12898 9.15672Z" fill="#313131"/>
</svg>
