<svg width="22" height="24" viewBox="0 0 22 24" fill="none" xmlns="http://www.w3.org/2000/svg">
<path fill-rule="evenodd" clip-rule="evenodd" d="M4.29102 4.41667C4.29102 2.32259 5.9886 0.625 8.08268 0.625C9.25544 0.625 10.3038 1.15743 10.9994 1.99375C11.6949 1.15743 12.7433 0.625 13.916 0.625C16.0101 0.625 17.7077 2.32259 17.7077 4.41667C17.7077 5.16838 17.4889 5.86899 17.1116 6.45833H17.9993C19.7713 6.45833 21.2077 7.89475 21.2077 9.66667V12C21.2077 12.9382 20.5749 13.7286 19.7128 13.9676C19.8809 16.0986 19.7836 18.2436 19.4221 20.353C19.2062 21.6126 18.1832 22.5776 16.9132 22.7195L15.8463 22.8387C12.625 23.1988 9.37368 23.1988 6.15241 22.8387L5.08553 22.7195C3.81547 22.5776 2.79246 21.6126 2.57662 20.353C2.21515 18.2436 2.1178 16.0986 2.28588 13.9676C1.42381 13.7286 0.791016 12.9382 0.791016 12V9.66667C0.791016 7.89475 2.22744 6.45833 3.99935 6.45833H4.88708C4.50976 5.86899 4.29102 5.16838 4.29102 4.41667ZM10.1243 4.41667C10.1243 3.28909 9.21026 2.375 8.08268 2.375C6.9551 2.375 6.04102 3.28909 6.04102 4.41667C6.04102 5.54425 6.9551 6.45833 8.08268 6.45833C9.21026 6.45833 10.1243 5.54425 10.1243 4.41667ZM13.916 6.45833C15.0436 6.45833 15.9577 5.54425 15.9577 4.41667C15.9577 3.28909 15.0436 2.375 13.916 2.375C12.7884 2.375 11.8743 3.28909 11.8743 4.41667C11.8743 5.54425 12.7884 6.45833 13.916 6.45833ZM2.54102 9.66667C2.54102 8.86125 3.19393 8.20833 3.99935 8.20833H10.1243V12.2917H2.83268C2.6716 12.2917 2.54102 12.1611 2.54102 12V9.66667ZM11.8743 14.0417H17.9632C18.1268 16.049 18.0378 18.0702 17.6972 20.0574C17.6131 20.5487 17.2141 20.925 16.7188 20.9803L15.6519 21.0996C14.3962 21.2399 13.1357 21.3233 11.8743 21.3496V14.0417ZM11.8743 12.2917H19.166C19.3271 12.2917 19.4577 12.1611 19.4577 12V9.66667C19.4577 8.86125 18.8048 8.20833 17.9993 8.20833H11.8743V12.2917ZM10.1243 14.0417V21.3496C8.86298 21.3233 7.6025 21.2399 6.34679 21.0996L5.2799 20.9803C4.78461 20.925 4.38565 20.5487 4.30148 20.0574C3.96094 18.0702 3.87187 16.049 4.03555 14.0417H10.1243Z" fill="#DC6803"/>
</svg>
