<svg width="20" height="21" viewBox="0 0 20 21" fill="none" xmlns="http://www.w3.org/2000/svg">
<path fill-rule="evenodd" clip-rule="evenodd" d="M10 20.5C15.5228 20.5 20 16.0228 20 10.5C20 4.97715 15.5228 0.5 10 0.5C4.47715 0.5 0 4.97715 0 10.5C0 16.0228 4.47715 20.5 10 20.5ZM10 18.5C14.4183 18.5 18 14.9183 18 10.5C18 6.08172 14.4183 2.5 10 2.5C5.58172 2.5 2 6.08172 2 10.5C2 14.9183 5.58172 18.5 10 18.5Z" fill="#E9E9E9"/>
<path d="M9.43796 5.00314C9.63233 4.48333 10.3676 4.48333 10.562 5.00314L11.589 7.74971C11.6733 7.97522 11.8842 8.12849 12.1248 8.139L15.0543 8.267C15.6087 8.29123 15.8359 8.9905 15.4016 9.33598L13.1068 11.1615C12.9184 11.3113 12.8378 11.5593 12.9022 11.7913L13.6857 14.617C13.834 15.1518 13.2392 15.584 12.7764 15.2777L10.3311 13.6593C10.1303 13.5265 9.86958 13.5265 9.66881 13.6593L7.22355 15.2777C6.76076 15.584 6.16593 15.1518 6.31422 14.617L7.09774 11.7913C7.16208 11.5593 7.0815 11.3113 6.89308 11.1615L4.5983 9.33598C4.164 8.9905 4.3912 8.29123 4.94563 8.267L7.87515 8.139C8.11567 8.12849 8.32663 7.97522 8.41095 7.74971L9.43796 5.00314Z" fill="#E9E9E9"/>
</svg>
