<svg width="21" height="18" viewBox="0 0 21 18" fill="none" xmlns="http://www.w3.org/2000/svg">
<path d="M13.5004 9.00012C13.5004 8.17169 14.172 7.50012 15.0004 7.50012C15.8289 7.50012 16.5004 8.17169 16.5004 9.00012C16.5004 9.82855 15.8289 10.5001 15.0004 10.5001C14.172 10.5001 13.5004 9.82855 13.5004 9.00012Z" fill="#505050"/>
<path fill-rule="evenodd" clip-rule="evenodd" d="M18.4418 3.67414C17.784 2.12848 16.3306 1.01735 14.6011 0.835354L13.9492 0.766758C10.6569 0.420305 7.33617 0.443152 4.04893 0.834872L3.61699 0.886343C1.9482 1.0852 0.625946 2.38901 0.40367 4.05485C-0.0342962 7.33716 -0.0342962 10.6631 0.40367 13.9454C0.625946 15.6113 1.9482 16.9151 3.61699 17.1139L4.04894 17.1654C7.33618 17.5571 10.6569 17.58 13.9492 17.2335L14.6011 17.1649C16.3306 16.9829 17.784 15.8718 18.4418 14.3261C19.481 14.0167 20.2742 13.1157 20.4044 12.0025C20.6377 10.0077 20.6377 7.99255 20.4044 5.99776C20.2742 4.88454 19.481 3.98356 18.4418 3.67414ZM13.7923 2.25852C10.6112 1.92377 7.40261 1.94585 4.22642 2.32433L3.79448 2.37581C2.80567 2.49364 2.0222 3.26618 1.89049 4.25324C1.4701 7.40388 1.4701 10.5964 1.89049 13.747C2.0222 14.7341 2.80567 15.5066 3.79448 15.6245L4.22642 15.6759C7.40261 16.0544 10.6112 16.0765 13.7923 15.7417L14.4441 15.6732C15.2947 15.5836 16.0472 15.1644 16.5688 14.5421C15.0606 14.63 13.5324 14.5907 12.0422 14.4242C10.7728 14.2823 9.74623 13.2828 9.59649 12.0025C9.36318 10.0077 9.36318 7.99255 9.59649 5.99776C9.74623 4.7175 10.7728 3.71796 12.0422 3.57609C13.5324 3.40954 15.0606 3.37024 16.5688 3.45819C16.0472 2.83587 15.2947 2.41662 14.4441 2.32712L13.7923 2.25852ZM17.2778 5.01483C17.2784 5.01867 17.279 5.02251 17.2796 5.02635L17.2857 5.06524L17.4843 5.03439C17.5871 5.04456 17.6897 5.05537 17.7921 5.06681C18.3795 5.13246 18.8473 5.59661 18.9146 6.17201C19.1343 8.05102 19.1343 9.94924 18.9146 11.8283C18.8473 12.4037 18.3795 12.8678 17.7921 12.9335C17.6897 12.9449 17.5871 12.9557 17.4843 12.9659L17.2857 12.935L17.2796 12.9739C17.279 12.9778 17.2784 12.9816 17.2778 12.9854C15.5992 13.1373 13.8776 13.12 12.2088 12.9335C11.6214 12.8678 11.1536 12.4037 11.0863 11.8283C10.8666 9.94925 10.8666 8.05102 11.0863 6.17201C11.1536 5.59661 11.6214 5.13246 12.2088 5.06681C13.8776 4.8803 15.5992 4.86297 17.2778 5.01483Z" fill="#505050"/>
</svg>
