<svg width="16" height="16" viewBox="0 0 16 16" fill="none" xmlns="http://www.w3.org/2000/svg">
<path d="M8.62492 3.83301C8.62492 3.48783 8.3451 3.20801 7.99992 3.20801C7.65474 3.20801 7.37492 3.48783 7.37492 3.83301V7.99967C7.37492 8.21517 7.48593 8.41546 7.66867 8.52967L10.1687 10.0922C10.4614 10.2751 10.847 10.1861 11.0299 9.89342C11.2129 9.60071 11.1239 9.21512 10.8312 9.03218L8.62492 7.65327V3.83301Z" fill="#969696"/>
<path fill-rule="evenodd" clip-rule="evenodd" d="M7.99992 0.708008C3.97284 0.708008 0.708252 3.9726 0.708252 7.99967C0.708252 12.0268 3.97284 15.2913 7.99992 15.2913C12.027 15.2913 15.2916 12.0268 15.2916 7.99967C15.2916 3.9726 12.027 0.708008 7.99992 0.708008ZM1.95825 7.99967C1.95825 4.66295 4.6632 1.95801 7.99992 1.95801C11.3366 1.95801 14.0416 4.66295 14.0416 7.99967C14.0416 11.3364 11.3366 14.0413 7.99992 14.0413C4.6632 14.0413 1.95825 11.3364 1.95825 7.99967Z" fill="#969696"/>
</svg>
