<svg width="10" height="10" viewBox="0 0 10 10" fill="none" xmlns="http://www.w3.org/2000/svg">
<path d="M9.06575 1.99469C9.35865 1.70179 9.35865 1.22692 9.06575 0.934025C8.77286 0.641132 8.29799 0.641132 8.00509 0.934025L4.99989 3.93922L1.99469 0.934026C1.7018 0.641133 1.22693 0.641132 0.934035 0.934026C0.641141 1.22692 0.641142 1.70179 0.934035 1.99469L3.93923 4.99989L0.934025 8.00509C0.641132 8.29799 0.641132 8.77286 0.934025 9.06575C1.22692 9.35865 1.70179 9.35865 1.99469 9.06575L4.99989 6.06054L8.0051 9.06575C8.298 9.35865 8.77287 9.35865 9.06576 9.06575C9.35865 8.77286 9.35865 8.29799 9.06576 8.00509L6.06055 4.99989L9.06575 1.99469Z" fill="#969696"/>
</svg>
