<svg width="16" height="16" viewBox="0 0 16 16" fill="none" xmlns="http://www.w3.org/2000/svg">
<path d="M5.49967 0.708496C2.85331 0.708496 0.708008 2.8538 0.708008 5.50016V11.4226C0.708008 11.7677 0.98783 12.0476 1.33301 12.0476C1.67819 12.0476 1.95801 11.7677 1.95801 11.4226V5.50016C1.95801 3.54415 3.54367 1.9585 5.49967 1.9585H11.3437C11.6889 1.9585 11.9687 1.67867 11.9687 1.3335C11.9687 0.988318 11.6889 0.708496 11.3437 0.708496H5.49967Z" fill="#505050"/>
<path fill-rule="evenodd" clip-rule="evenodd" d="M13.3351 3.66121C10.6343 3.35936 7.86503 3.35936 5.16424 3.66121C4.39484 3.7472 3.77656 4.3527 3.68588 5.12806C3.36556 7.86679 3.36556 10.6335 3.68588 13.3723C3.77656 14.1476 4.39484 14.7531 5.16424 14.8391C7.86503 15.141 10.6343 15.141 13.3351 14.8391C14.1045 14.7531 14.7228 14.1476 14.8135 13.3723C15.1338 10.6335 15.1338 7.86679 14.8135 5.12806C14.7228 4.3527 14.1045 3.7472 13.3351 3.66121ZM5.30308 4.90348C7.9116 4.61194 10.5878 4.61194 13.1963 4.90348C13.3941 4.92558 13.5496 5.08201 13.572 5.27327C13.881 7.91553 13.881 10.5848 13.572 13.2271C13.5496 13.4183 13.3941 13.5747 13.1963 13.5968C10.5878 13.8884 7.9116 13.8884 5.30308 13.5968C5.10529 13.5747 4.94979 13.4183 4.92742 13.2271C4.61838 10.5848 4.61838 7.91553 4.92742 5.27327C4.94979 5.08201 5.10529 4.92558 5.30308 4.90348Z" fill="#505050"/>
</svg>
