<svg width="24" height="24" viewBox="0 0 24 24" fill="none" xmlns="http://www.w3.org/2000/svg">
<path d="M16.0662 8.99469C16.3591 8.70179 16.3591 8.22692 16.0662 7.93403C15.7733 7.64113 15.2985 7.64113 15.0056 7.93403L12.0004 10.9392L8.99518 7.93403C8.70229 7.64113 8.22742 7.64113 7.93452 7.93403C7.64163 8.22692 7.64163 8.70179 7.93452 8.99469L10.9397 11.9999L7.93451 15.0051C7.64162 15.298 7.64162 15.7729 7.93451 16.0658C8.22741 16.3586 8.70228 16.3586 8.99517 16.0658L12.0004 13.0605L15.0056 16.0658C15.2985 16.3586 15.7734 16.3586 16.0663 16.0658C16.3591 15.7729 16.3591 15.298 16.0663 15.0051L13.061 11.9999L16.0662 8.99469Z" fill="#D94545"/>
</svg>
