<svg width="33" height="32" viewBox="0 0 33 32" fill="none" xmlns="http://www.w3.org/2000/svg">
<path d="M16.8654 10.9998C14.104 10.9998 11.8654 13.2384 11.8654 15.9998C11.8654 18.7613 14.104 20.9998 16.8654 20.9998C19.6269 20.9998 21.8654 18.7613 21.8654 15.9998C21.8654 13.2384 19.6269 10.9998 16.8654 10.9998Z" fill="#313131"/>
<path fill-rule="evenodd" clip-rule="evenodd" d="M16.8654 1.6665C17.4177 1.6665 17.8654 2.11422 17.8654 2.6665V4.37543C23.511 4.85468 28.0106 9.35425 28.4899 14.9998H30.1988C30.7511 14.9998 31.1988 15.4476 31.1988 15.9998C31.1988 16.5521 30.7511 16.9998 30.1988 16.9998H28.4899C28.0106 22.6454 23.511 27.145 17.8654 27.6242V29.3332C17.8654 29.8855 17.4177 30.3332 16.8654 30.3332C16.3132 30.3332 15.8654 29.8855 15.8654 29.3332V27.6242C10.2199 27.145 5.72029 22.6454 5.24104 16.9998H3.53211C2.97983 16.9998 2.53211 16.5521 2.53211 15.9998C2.53211 15.4476 2.97983 14.9998 3.53211 14.9998H5.24104C5.72029 9.35425 10.2199 4.85468 15.8654 4.37543V2.6665C15.8654 2.11422 16.3132 1.6665 16.8654 1.6665ZM7.19878 15.9998C7.19878 21.3386 11.5267 25.6665 16.8654 25.6665C22.2042 25.6665 26.5321 21.3386 26.5321 15.9998C26.5321 10.6611 22.2042 6.33317 16.8654 6.33317C11.5267 6.33317 7.19878 10.6611 7.19878 15.9998Z" fill="#313131"/>
</svg>
