<svg width="36" height="32" viewBox="0 0 36 32" fill="none" xmlns="http://www.w3.org/2000/svg">
<path d="M19.4424 0.993764C18.8001 -0.113154 17.2016 -0.113158 16.5593 0.993764L12.0359 8.78928C11.7186 9.33608 11.1701 9.70924 10.545 9.80365L2.06785 11.084C0.64405 11.2991 0.144618 13.0968 1.25346 14.0154L7.56861 19.2475C8.15318 19.7318 8.42805 20.4957 8.28605 21.2414L6.6341 29.9167C6.37296 31.2881 7.81261 32.3536 9.04785 31.7032L17.0302 27.5001C17.6378 27.1802 18.3639 27.1802 18.9715 27.5001L26.9538 31.7032C28.1891 32.3536 29.6287 31.2881 29.3676 29.9167L27.7156 21.2414C27.5736 20.4957 27.8485 19.7318 28.4331 19.2475L34.7482 14.0154C35.857 13.0968 35.3576 11.2991 33.9338 11.084L25.4566 9.80365C24.8315 9.70924 24.2831 9.33608 23.9658 8.78928L19.4424 0.993764Z" fill="#DFDFDF"/>
</svg>
