<svg width="22" height="16" viewBox="0 0 22 16" fill="none" xmlns="http://www.w3.org/2000/svg">
<path fill-rule="evenodd" clip-rule="evenodd" d="M12.5792 4.20833H1.66675C1.1835 4.20833 0.791748 3.81658 0.791748 3.33333C0.791748 2.85008 1.1835 2.45833 1.66675 2.45833H12.5792C12.9601 1.11171 14.1982 0.125 15.6667 0.125C17.1353 0.125 18.3734 1.11171 18.7543 2.45833H20.3334C20.8167 2.45833 21.2084 2.85008 21.2084 3.33333C21.2084 3.81658 20.8167 4.20833 20.3334 4.20833H18.7543C18.3734 5.55496 17.1353 6.54167 15.6667 6.54167C14.1982 6.54167 12.9601 5.55496 12.5792 4.20833ZM14.2084 3.33333C14.2084 2.52792 14.8613 1.875 15.6667 1.875C16.4722 1.875 17.1251 2.52792 17.1251 3.33333C17.1251 4.13875 16.4722 4.79167 15.6667 4.79167C14.8613 4.79167 14.2084 4.13875 14.2084 3.33333Z" fill="#313131"/>
<path fill-rule="evenodd" clip-rule="evenodd" d="M9.42098 13.5417H20.3334C20.8167 13.5417 21.2084 13.1499 21.2084 12.6667C21.2084 12.1834 20.8167 11.7917 20.3334 11.7917H9.42098C9.0401 10.445 7.80199 9.45833 6.33342 9.45833C4.86484 9.45833 3.62673 10.445 3.24585 11.7917H1.66675C1.1835 11.7917 0.791748 12.1834 0.791748 12.6667C0.791748 13.1499 1.1835 13.5417 1.66675 13.5417H3.24585C3.62673 14.8883 4.86484 15.875 6.33342 15.875C7.80199 15.875 9.0401 14.8883 9.42098 13.5417ZM4.87508 12.6667C4.87508 11.8613 5.528 11.2083 6.33342 11.2083C7.13883 11.2083 7.79175 11.8613 7.79175 12.6667C7.79175 13.4721 7.13883 14.125 6.33342 14.125C5.528 14.125 4.87508 13.4721 4.87508 12.6667Z" fill="#313131"/>
</svg>
