<svg width="16" height="18" viewBox="0 0 16 18" fill="none" xmlns="http://www.w3.org/2000/svg">
<path fill-rule="evenodd" clip-rule="evenodd" d="M8.64481 2.26362C8.24812 2.02476 7.75188 2.02476 7.35519 2.26362L6.83888 2.57452C5.45765 3.40622 3.90703 3.91659 2.30183 4.06782L1.97655 4.09847C1.84813 4.11057 1.75 4.21838 1.75 4.34736V5.99125C1.75 8.49879 2.76803 10.8989 4.57088 12.6417L7.82624 15.7887C7.92314 15.8824 8.07686 15.8824 8.17376 15.7887L11.4291 12.6417C13.232 10.8989 14.25 8.49879 14.25 5.99125V4.34736C14.25 4.21838 14.1519 4.11057 14.0235 4.09847L13.6982 4.06782C12.093 3.91659 10.5423 3.40622 9.16112 2.57452L8.64481 2.26362ZM6.58141 0.978605C7.45413 0.453096 8.54586 0.453095 9.41859 0.978605L9.93489 1.2895C11.1234 2.00515 12.4576 2.4443 13.8389 2.57443L14.1641 2.60508C15.0631 2.68977 15.75 3.44446 15.75 4.34736V5.99125C15.75 8.90542 14.5669 11.6947 12.4717 13.7202L9.21632 16.8672C8.53801 17.5229 7.46199 17.5229 6.78368 16.8672L3.52832 13.7202C1.43311 11.6947 0.25 8.90542 0.25 5.99125V4.34736C0.25 3.44446 0.936926 2.68977 1.83585 2.60508L2.16113 2.57443C3.54235 2.4443 4.87661 2.00515 6.06511 1.2895L6.58141 0.978605Z" fill="#DC6803"/>
</svg>
