<svg width="31" height="31" viewBox="0 0 31 31" fill="none" xmlns="http://www.w3.org/2000/svg">
<path fill-rule="evenodd" clip-rule="evenodd" d="M4.59961 12.9439C4.59961 9.62018 7.51548 7.06104 10.9381 7.06104C12.7023 7.06104 14.2548 7.88828 15.3688 8.95868C16.4829 7.88828 18.0353 7.06104 19.7996 7.06104C23.2222 7.06104 26.1381 9.62018 26.1381 12.9439C26.1381 15.2206 25.1671 17.2228 23.822 18.9152C22.4792 20.6047 20.7226 22.0386 19.0408 23.2038C18.3984 23.6488 17.7486 24.0593 17.1538 24.3622C16.5953 24.6466 15.9531 24.9072 15.3688 24.9072C14.7845 24.9072 14.1424 24.6466 13.5839 24.3622C12.9891 24.0593 12.3393 23.6488 11.6969 23.2038C10.0151 22.0386 8.25853 20.6047 6.9157 18.9152C5.57054 17.2228 4.59961 15.2206 4.59961 12.9439ZM10.9381 8.90719C8.379 8.90719 6.44576 10.7892 6.44576 12.9439C6.44576 14.6712 7.17904 16.2795 8.36095 17.7665C9.54519 19.2565 11.1386 20.5711 12.7482 21.6862C13.3573 22.1082 13.931 22.4672 14.4217 22.7171C14.9487 22.9855 15.254 23.061 15.3688 23.061C15.4837 23.061 15.789 22.9855 16.316 22.7171C16.8067 22.4672 17.3804 22.1082 17.9895 21.6862C19.5991 20.5711 21.1925 19.2565 22.3767 17.7665C23.5586 16.2795 24.2919 14.6712 24.2919 12.9439C24.2919 10.7892 22.3587 8.90719 19.7996 8.90719C18.3299 8.90719 16.9575 9.78525 16.1006 10.8997C15.9259 11.127 15.6555 11.2601 15.3688 11.2601C15.0822 11.2601 14.8118 11.127 14.6371 10.8997C13.7802 9.78525 12.4078 8.90719 10.9381 8.90719Z" fill="#27A646"/>
</svg>
