<svg width="20" height="22" viewBox="0 0 20 22" fill="none" xmlns="http://www.w3.org/2000/svg">
<path fill-rule="evenodd" clip-rule="evenodd" d="M11.8177 2.95653C10.802 1.98194 9.19844 1.98194 8.18278 2.95653L2.78526 8.13575C2.65302 8.26264 2.56406 8.42794 2.53101 8.60822C1.88452 12.1337 1.8368 15.743 2.38985 19.2843L2.52112 20.1249H5.99366V12.8784C5.99366 12.3951 6.38541 12.0034 6.86866 12.0034H13.1318C13.6151 12.0034 14.0068 12.3951 14.0068 12.8784V20.1249H17.4793L17.6106 19.2843C18.1637 15.743 18.116 12.1337 17.4695 8.60822C17.4364 8.42794 17.3475 8.26264 17.2152 8.13575L11.8177 2.95653ZM6.97114 1.69382C8.66391 0.0695085 11.3366 0.0695085 13.0293 1.69382L18.4268 6.87304C18.8242 7.2543 19.0914 7.75094 19.1908 8.29257C19.8727 12.0115 19.9231 15.8187 19.3397 19.5543L19.1288 20.9047C19.0416 21.4632 18.5606 21.8749 17.9953 21.8749H13.1318C12.6486 21.8749 12.2568 21.4831 12.2568 20.9999V13.7534H7.74366V20.9999C7.74366 21.4831 7.35191 21.8749 6.86866 21.8749H2.00514C1.43991 21.8749 0.95891 21.4632 0.871696 20.9047L0.660806 19.5543C0.0774166 15.8187 0.127755 12.0115 0.809707 8.29257C0.909029 7.75094 1.17629 7.2543 1.57362 6.87304L6.97114 1.69382Z" fill="#969696"/>
</svg>
