<svg width="18" height="23" viewBox="0 0 18 23" fill="none" xmlns="http://www.w3.org/2000/svg">
<path d="M11.0954 1.82529C9.94923 0.641571 8.05078 0.641569 6.90463 1.82529L1.30641 7.60698C0.984892 7.93903 0.768842 8.35881 0.685476 8.81343C0.0055905 12.5211 -0.0445957 16.3168 0.537027 20.0411L0.742947 21.3596C0.807987 21.7761 1.16669 22.0832 1.58822 22.0832H5.50001C5.82217 22.0832 6.08334 21.822 6.08334 21.4998V13.3332H11.9167V21.4998C11.9167 21.822 12.1778 22.0832 12.5 22.0832H16.4117C16.8333 22.0832 17.192 21.7761 17.257 21.3596L17.4629 20.0411C18.0446 16.3168 17.9944 12.5211 17.3145 8.81342C17.2311 8.35881 17.0151 7.93903 16.6936 7.60698L11.0954 1.82529Z" fill="#F79009"/>
</svg>
