<svg width="21" height="20" viewBox="0 0 21 20" fill="none" xmlns="http://www.w3.org/2000/svg">
<path d="M4.73093 2.13584C3.39576 2.28507 2.32704 3.33885 2.17256 4.65965C1.75759 8.20765 1.75759 11.7919 2.17256 15.3399C2.32704 16.6607 3.39576 17.7145 4.73093 17.8637C8.2039 18.2519 11.7968 18.2519 15.2698 17.8637C16.6049 17.7145 17.6737 16.6607 17.8281 15.3399C18.1263 12.7906 18.2102 10.2225 18.0799 7.66265C18.0766 7.59654 18.1012 7.53206 18.148 7.48526L19.36 6.27335C19.5002 6.13308 19.7399 6.22079 19.7548 6.41861C19.9835 9.45768 19.9207 12.5132 19.5663 15.5432C19.3156 17.6864 17.5949 19.3648 15.4641 19.6029C11.862 20.0055 8.1387 20.0055 4.53655 19.6029C2.40578 19.3648 0.685062 17.6864 0.434405 15.5432C0.00363585 11.8602 0.00363592 8.13943 0.434405 4.45636C0.685062 2.31323 2.40578 0.634817 4.53656 0.396671C8.1387 -0.00592161 11.862 -0.00592161 15.4641 0.396671C16.2146 0.480546 16.9142 0.743082 17.5166 1.14165C17.6352 1.22008 17.6469 1.38673 17.5464 1.48723L16.6097 2.42393C16.5331 2.50055 16.4143 2.51344 16.3187 2.46226C15.9998 2.29135 15.6453 2.17782 15.2698 2.13584C11.7968 1.74769 8.2039 1.74769 4.73093 2.13584Z" fill="#DC6803"/>
<path d="M20.5357 3.03518C20.8774 2.69347 20.8774 2.13945 20.5357 1.79774C20.194 1.45603 19.64 1.45603 19.2983 1.79774L9.417 11.679L6.53572 8.79774C6.19401 8.45604 5.63999 8.45604 5.29828 8.79774C4.95657 9.13945 4.95657 9.69347 5.29828 10.0352L8.79828 13.5352C9.13999 13.8769 9.69401 13.8769 10.0357 13.5352L20.5357 3.03518Z" fill="#DC6803"/>
</svg>
