<svg width="23" height="23" viewBox="0 0 23 23" fill="none" xmlns="http://www.w3.org/2000/svg">
<path fill-rule="evenodd" clip-rule="evenodd" d="M10.1244 3.75302C5.86407 4.19087 2.54102 7.79069 2.54102 12.1666C2.54102 16.8381 6.32794 20.625 10.9994 20.625C15.3753 20.625 18.9751 17.3019 19.413 13.0416H10.9994C10.5161 13.0416 10.1244 12.6499 10.1244 12.1666V3.75302ZM0.791016 12.1666C0.791016 6.52874 5.36144 1.95831 10.9994 1.95831C11.4826 1.95831 11.8744 2.35006 11.8744 2.83331V11.2916H20.3327C20.8159 11.2916 21.2077 11.6834 21.2077 12.1666C21.2077 17.8046 16.6373 22.375 10.9994 22.375C5.36144 22.375 0.791016 17.8046 0.791016 12.1666Z" fill="#DC6803"/>
<path fill-rule="evenodd" clip-rule="evenodd" d="M15.0827 2.45256V8.08331H20.7134C20.0566 5.30151 17.8645 3.10943 15.0827 2.45256ZM14.497 0.571898C18.7207 1.09751 22.0685 4.44526 22.5941 8.66896C22.6737 9.30836 22.1437 9.83331 21.4994 9.83331H13.916C13.5939 9.83331 13.3327 9.57214 13.3327 9.24998V1.66664C13.3327 1.02231 13.8576 0.492329 14.497 0.571898Z" fill="#DC6803"/>
</svg>
