<svg width="22" height="24" viewBox="0 0 22 24" fill="none" xmlns="http://www.w3.org/2000/svg">
<path fill-rule="evenodd" clip-rule="evenodd" d="M10.9994 5.29167C8.90528 5.29167 7.20769 6.98925 7.20769 9.08333C7.20769 11.1774 8.90528 12.875 10.9994 12.875C13.0934 12.875 14.791 11.1774 14.791 9.08333C14.791 6.98925 13.0934 5.29167 10.9994 5.29167ZM8.95769 9.08333C8.95769 7.95575 9.87177 7.04167 10.9994 7.04167C12.1269 7.04167 13.041 7.95575 13.041 9.08333C13.041 10.2109 12.1269 11.125 10.9994 11.125C9.87177 11.125 8.95769 10.2109 8.95769 9.08333Z" fill="#DC6803"/>
<path fill-rule="evenodd" clip-rule="evenodd" d="M10.9994 0.625C6.32795 0.625 2.54102 4.41192 2.54102 9.08333C2.54102 10.7962 3.05013 12.3901 3.92528 13.722L0.908245 18.9477C0.736669 19.2448 0.75464 19.6149 0.954206 19.894C1.15377 20.1732 1.49809 20.3099 1.8348 20.2437L4.88431 19.6442L5.8899 22.5849C6.00093 22.9096 6.29151 23.1394 6.63304 23.1727C6.97458 23.206 7.30403 23.0365 7.47561 22.7393L10.4853 17.5263C10.6554 17.5365 10.8268 17.5417 10.9994 17.5417C11.172 17.5417 11.3433 17.5365 11.5134 17.5263L14.5231 22.7393C14.6949 23.0368 15.0248 23.2063 15.3666 23.1726C15.7085 23.139 15.999 22.9084 16.1094 22.5831L17.1099 19.6365L20.1621 20.2434C20.499 20.3103 20.8439 20.174 21.044 19.8948C21.244 19.6156 21.2622 19.2451 21.0905 18.9477L18.0734 13.722C18.9486 12.3901 19.4577 10.7961 19.4577 9.08333C19.4577 4.41192 15.6708 0.625 10.9994 0.625ZM4.29102 9.08333C4.29102 5.37842 7.29445 2.375 10.9994 2.375C14.7043 2.375 17.7077 5.37842 17.7077 9.08333C17.7077 12.7882 14.7043 15.7917 10.9994 15.7917C7.29445 15.7917 4.29102 12.7882 4.29102 9.08333ZM8.64707 17.2103C7.30193 16.8216 6.09465 16.1081 5.11574 15.1601L3.3865 18.1552L5.2963 17.7798C5.72569 17.6953 6.15141 17.9411 6.29301 18.3552L6.92277 20.1969L8.64707 17.2103ZM15.0732 20.192L13.3516 17.2103C14.6968 16.8216 15.9041 16.108 16.883 15.1601L18.6094 18.1504L16.6987 17.7704C16.2681 17.6848 15.8407 17.9316 15.6995 18.3473L15.0732 20.192Z" fill="#DC6803"/>
</svg>
