<svg width="20" height="20" viewBox="0 0 20 20" fill="none" xmlns="http://www.w3.org/2000/svg">
<path d="M4.17565 9.99979C4.17565 9.51654 4.5674 9.12479 5.05065 9.12479H9.12537V5.05003C9.12537 4.56678 9.51712 4.17503 10.0004 4.17503C10.4836 4.17503 10.8754 4.56678 10.8754 5.05003V9.12479H14.9501C15.4334 9.12479 15.8251 9.51654 15.8251 9.99979C15.8251 10.483 15.4334 10.8748 14.9501 10.8748H10.8754V14.9495C10.8754 15.4328 10.4836 15.8245 10.0004 15.8245C9.51712 15.8245 9.12537 15.4328 9.12537 14.9495V10.8748H5.05065C4.5674 10.8748 4.17565 10.483 4.17565 9.99979Z" fill="#DC6803"/>
<path fill-rule="evenodd" clip-rule="evenodd" d="M4.53656 0.396671C8.1387 -0.00592161 11.862 -0.00592161 15.4641 0.396671C17.5949 0.634817 19.3156 2.31323 19.5663 4.45636C19.9971 8.13943 19.9971 11.8602 19.5663 15.5432C19.3156 17.6864 17.5949 19.3648 15.4641 19.6029C11.862 20.0055 8.1387 20.0055 4.53655 19.6029C2.40578 19.3648 0.685062 17.6864 0.434405 15.5432C0.00363585 11.8602 0.00363592 8.13943 0.434405 4.45636C0.685062 2.31323 2.40578 0.634817 4.53656 0.396671ZM15.2698 2.13584C11.7968 1.74769 8.2039 1.74769 4.73093 2.13584C3.39576 2.28507 2.32704 3.33885 2.17256 4.65965C1.75759 8.20765 1.75759 11.7919 2.17256 15.3399C2.32704 16.6607 3.39576 17.7145 4.73093 17.8637C8.2039 18.2519 11.7968 18.2519 15.2698 17.8637C16.6049 17.7145 17.6737 16.6607 17.8281 15.3399C18.2431 11.7919 18.2431 8.20765 17.8281 4.65965C17.6737 3.33885 16.6049 2.28507 15.2698 2.13584Z" fill="#DC6803"/>
</svg>
