<svg width="19" height="20" viewBox="0 0 19 20" fill="none" xmlns="http://www.w3.org/2000/svg">
<path d="M9.3327 6.75005C7.53778 6.75005 6.0827 8.20512 6.0827 10C6.0827 11.795 7.53778 13.25 9.3327 13.25C11.1276 13.25 12.5827 11.795 12.5827 10C12.5827 8.20512 11.1276 6.75005 9.3327 6.75005Z" fill="#505050"/>
<path fill-rule="evenodd" clip-rule="evenodd" d="M4.10224 1.08151C7.55036 0.696136 11.1151 0.696136 14.5632 1.08151C16.4616 1.29369 17.9928 2.78947 18.2156 4.69452C18.6279 8.21952 18.6279 11.7806 18.2156 15.3056C17.9928 17.2106 16.4616 18.7064 14.5632 18.9186C11.1151 19.304 7.55036 19.304 4.10224 18.9186C2.20384 18.7064 0.672649 17.2106 0.449836 15.3056C0.0375547 11.7806 0.0375547 8.21952 0.449836 4.69452C0.672649 2.78947 2.20384 1.29369 4.10224 1.08151ZM14.3327 4.00005C13.7804 4.00005 13.3327 4.44776 13.3327 5.00005C13.3327 5.55233 13.7804 6.00005 14.3327 6.00005C14.885 6.00005 15.3327 5.55233 15.3327 5.00005C15.3327 4.44776 14.885 4.00005 14.3327 4.00005ZM4.5827 10C4.5827 7.37669 6.70935 5.25005 9.3327 5.25005C11.9561 5.25005 14.0827 7.37669 14.0827 10C14.0827 12.6234 11.9561 14.75 9.3327 14.75C6.70935 14.75 4.5827 12.6234 4.5827 10Z" fill="#505050"/>
</svg>
