<svg width="18" height="18" viewBox="0 0 18 18" fill="none" xmlns="http://www.w3.org/2000/svg">
<path d="M8.99984 7.854C9.37953 7.854 9.68734 8.16181 9.68734 8.5415V13.1248C9.68734 13.5045 9.37953 13.8123 8.99984 13.8123C8.62014 13.8123 8.31234 13.5045 8.31234 13.1248V8.5415C8.31234 8.16181 8.62014 7.854 8.99984 7.854Z" fill="#969696"/>
<path d="M8.99984 6.24984C9.5061 6.24984 9.9165 5.83943 9.9165 5.33317C9.9165 4.82691 9.5061 4.4165 8.99984 4.4165C8.49358 4.4165 8.08317 4.82691 8.08317 5.33317C8.08317 5.83943 8.49358 6.24984 8.99984 6.24984Z" fill="#969696"/>
<path fill-rule="evenodd" clip-rule="evenodd" d="M0.979004 8.99984C0.979004 4.57005 4.57005 0.979004 8.99984 0.979004C13.4296 0.979004 17.0207 4.57005 17.0207 8.99984C17.0207 13.4296 13.4296 17.0207 8.99984 17.0207C4.57005 17.0207 0.979004 13.4296 0.979004 8.99984ZM8.99984 2.354C5.32944 2.354 2.354 5.32944 2.354 8.99984C2.354 12.6702 5.32944 15.6457 8.99984 15.6457C12.6702 15.6457 15.6457 12.6702 15.6457 8.99984C15.6457 5.32944 12.6702 2.354 8.99984 2.354Z" fill="#969696"/>
</svg>
