<svg width="57" height="70" viewBox="0 0 57 70" fill="none" xmlns="http://www.w3.org/2000/svg">
<g filter="url(#filter0_d_1116_26646)">
<g opacity="0.5" filter="url(#filter1_f_1116_26646)">
<ellipse cx="28.9969" cy="53" rx="12.5382" ry="5" fill="#313131"/>
</g>
<g filter="url(#filter2_d_1116_26646)">
<path d="M20.8889 24.3333C20.8889 20.1452 24.2944 16.75 28.4954 16.75C32.6964 16.75 36.1019 20.1452 36.1019 24.3333C36.1019 28.5215 32.6964 31.9167 28.4954 31.9167C24.2944 31.9167 20.8889 28.5215 20.8889 24.3333Z" fill="#505050"/>
<path fill-rule="evenodd" clip-rule="evenodd" d="M9.24164 21.7139C10.0459 11.9864 18.1996 4.5 27.99 4.5H29.0009C38.7913 4.5 46.945 11.9864 47.7493 21.7139C48.1823 26.9513 46.5596 32.1518 43.2229 36.2201L32.0049 49.8976C30.1911 52.1091 26.7999 52.1091 24.9861 49.8976L13.7681 36.2201C10.4314 32.1518 8.80861 26.9513 9.24164 21.7139ZM28.4954 13.25C22.3555 13.25 17.3782 18.2122 17.3782 24.3333C17.3782 30.4545 22.3555 35.4167 28.4954 35.4167C34.6353 35.4167 39.6126 30.4545 39.6126 24.3333C39.6126 18.2122 34.6353 13.25 28.4954 13.25Z" fill="#505050"/>
</g>
</g>
<defs>
<filter id="filter0_d_1116_26646" x="-7.59021" y="-3" width="72.1713" height="73" filterUnits="userSpaceOnUse" color-interpolation-filters="sRGB">
<feFlood flood-opacity="0" result="BackgroundImageFix"/>
<feColorMatrix in="SourceAlpha" type="matrix" values="0 0 0 0 0 0 0 0 0 0 0 0 0 0 0 0 0 0 127 0" result="hardAlpha"/>
<feOffset dy="4"/>
<feGaussianBlur stdDeviation="4"/>
<feComposite in2="hardAlpha" operator="out"/>
<feColorMatrix type="matrix" values="0 0 0 0 0.4125 0 0 0 0 0.4125 0 0 0 0 0.4125 0 0 0 0.05 0"/>
<feBlend mode="normal" in2="BackgroundImageFix" result="effect1_dropShadow_1116_26646"/>
<feBlend mode="normal" in="SourceGraphic" in2="effect1_dropShadow_1116_26646" result="shape"/>
</filter>
<filter id="filter1_f_1116_26646" x="14.4587" y="46" width="29.0764" height="14" filterUnits="userSpaceOnUse" color-interpolation-filters="sRGB">
<feFlood flood-opacity="0" result="BackgroundImageFix"/>
<feBlend mode="normal" in="SourceGraphic" in2="BackgroundImageFix" result="shape"/>
<feGaussianBlur stdDeviation="1" result="effect1_foregroundBlur_1116_26646"/>
</filter>
<filter id="filter2_d_1116_26646" x="1.17282" y="0.5" width="54.6453" height="63.0562" filterUnits="userSpaceOnUse" color-interpolation-filters="sRGB">
<feFlood flood-opacity="0" result="BackgroundImageFix"/>
<feColorMatrix in="SourceAlpha" type="matrix" values="0 0 0 0 0 0 0 0 0 0 0 0 0 0 0 0 0 0 127 0" result="hardAlpha"/>
<feOffset dy="4"/>
<feGaussianBlur stdDeviation="4"/>
<feComposite in2="hardAlpha" operator="out"/>
<feColorMatrix type="matrix" values="0 0 0 0 0.4125 0 0 0 0 0.4125 0 0 0 0 0.4125 0 0 0 0.05 0"/>
<feBlend mode="normal" in2="BackgroundImageFix" result="effect1_dropShadow_1116_26646"/>
<feBlend mode="normal" in="SourceGraphic" in2="effect1_dropShadow_1116_26646" result="shape"/>
</filter>
</defs>
</svg>
