<svg width="23" height="22" viewBox="0 0 23 22" fill="none" xmlns="http://www.w3.org/2000/svg">
<path d="M10.9993 19.3332C11.5516 19.3332 11.9993 19.7809 11.9993 20.3332C11.9993 20.8855 11.5516 21.3332 10.9993 21.3332H2.99935C1.71068 21.3332 0.666016 20.2885 0.666016 18.9998V2.99984C0.666016 1.71117 1.71069 0.666504 2.99935 0.666504H10.9993C11.5516 0.666504 11.9993 1.11422 11.9993 1.66651C11.9993 2.21879 11.5516 2.66651 10.9993 2.66651L2.99935 2.6665C2.81525 2.6665 2.66602 2.81574 2.66602 2.99984V18.9998C2.66602 19.1839 2.81525 19.3332 2.99935 19.3332H10.9993Z" fill="#D94545"/>
<path fill-rule="evenodd" clip-rule="evenodd" d="M7.66191 14.1535C6.74144 14.1535 5.99524 13.4073 5.99524 12.4868V9.49944C5.99524 8.57897 6.74144 7.83278 7.66191 7.83278L13.812 7.83278C13.8207 7.73487 13.8298 7.637 13.8394 7.53915L13.9114 6.79797C14.0213 5.66716 15.2221 4.98994 16.2467 5.48096C18.4256 6.52522 20.3982 7.95421 22.0695 9.69922L22.2018 9.83732C22.8208 10.4835 22.8208 11.5027 22.2018 12.1489L22.0695 12.287C20.3982 14.032 18.4256 15.461 16.2467 16.5053C15.2221 16.9963 14.0213 16.3191 13.9114 15.1882L13.8394 14.4471C13.8298 14.3492 13.8207 14.2514 13.812 14.1535H7.66191ZM14.7392 12.1535C15.0944 12.1535 15.4083 12.3392 15.5859 12.6211C15.6724 12.7585 15.7265 12.9186 15.7373 13.0912C15.7615 13.479 15.7924 13.8666 15.83 14.2536L15.8509 14.4687C17.2323 13.7568 18.5151 12.8703 19.6682 11.8317C19.9673 11.5623 20.2577 11.2826 20.5388 10.9931C19.1741 9.5877 17.5907 8.41409 15.8509 7.5175L15.83 7.73262C15.7924 8.11966 15.7615 8.50718 15.7373 8.89503C15.7044 9.42211 15.2673 9.83278 14.7392 9.83278H7.99524V12.1535H14.7392Z" fill="#D94545"/>
</svg>
