<svg width="32" height="10" viewBox="0 0 32 10" fill="none" xmlns="http://www.w3.org/2000/svg">
<path fill-rule="evenodd" clip-rule="evenodd" d="M28.3751 0.5H22.3965C22.7179 2.49286 24.6465 4.35714 26.7679 4.35714H31.5251C31.5893 4.16429 31.5893 3.90714 31.5893 3.71429C31.5893 1.91429 30.1751 0.5 28.3751 0.5Z" fill="url(#paint0_linear_1597_12523)"/>
<path fill-rule="evenodd" clip-rule="evenodd" d="M22.9111 4.67773V9.49916H25.804V6.92773H28.3754C29.7897 6.92773 31.0111 5.96345 31.3968 4.67773H22.9111Z" fill="#4DB45F"/>
<path fill-rule="evenodd" clip-rule="evenodd" d="M12.625 0.5V9.5H15.1964C15.1964 9.5 15.8393 9.5 16.1607 8.85714C17.8964 5.38571 18.4107 4.35714 18.4107 4.35714H18.7321V9.5H21.625V0.5H19.0536C19.0536 0.5 18.4107 0.564286 18.0893 1.14286C16.6107 4.1 15.8393 5.64286 15.8393 5.64286H15.5179V0.5H12.625Z" fill="#4DB45F"/>
<path fill-rule="evenodd" clip-rule="evenodd" d="M0.411133 9.5V0.5H3.30399C3.30399 0.5 4.1397 0.5 4.5897 1.78571C5.74685 5.19286 5.87542 5.64286 5.87542 5.64286C5.87542 5.64286 6.13256 4.80714 7.16113 1.78571C7.61113 0.5 8.44685 0.5 8.44685 0.5H11.3397V9.5H8.44685V4.67857H8.12542L6.51828 9.5H5.23256L3.62542 4.67857H3.30399V9.5H0.411133Z" fill="#4DB45F"/>
<defs>
<linearGradient id="paint0_linear_1597_12523" x1="22.3799" y1="2.42857" x2="31.5893" y2="2.42857" gradientUnits="userSpaceOnUse">
<stop stop-color="#00B4E6"/>
<stop offset="1" stop-color="#088CCB"/>
</linearGradient>
</defs>
</svg>
