<svg width="119" height="25" viewBox="0 0 119 25" fill="none" xmlns="http://www.w3.org/2000/svg">
<path d="M113.273 22.8948L110.34 19.1301L107.406 22.8948H101.85L107.539 15.9343L102.654 9.56934H108.033L110.344 12.6585L112.656 9.56934H118.034L113.145 15.9343L118.834 22.8948H113.273Z" fill="#101010"/>
<path d="M75.5264 9.17662C73.7351 9.17662 72.2548 9.77222 71.1614 10.839V0.553711H66.5651V13.5281C65.4005 10.879 62.5512 9.17662 59.1819 9.17662C55.8303 9.17662 53.0166 10.7945 51.7986 13.3458C51.363 10.23 48.2737 9.17662 46.0111 9.17662C44.5576 9.17662 43.2329 9.92779 42.1928 10.9679H42.1395V9.56332H37.5432V13.3947C36.3475 10.8167 33.5293 9.17662 30.2133 9.17662C26.8662 9.17662 24.0569 10.7901 22.8389 13.3281C22.4744 10.2256 19.9541 9.17662 17.6915 9.17662C16.238 9.17662 14.6778 9.92779 13.2776 11.6168C12.3441 9.82556 10.3927 9.17662 8.62803 9.17662C7.17449 9.17662 5.84985 9.92779 4.80971 10.9679H4.75637V9.56332H0.160156V22.8888H4.75637V15.1015C4.75637 14.0392 5.35201 12.8702 6.88556 12.8702C8.52135 12.8702 9.22367 14.0392 9.22367 15.3638V22.8977H13.8243V14.946C13.8777 13.9326 14.5 12.8702 15.9535 12.8702C17.5893 12.8702 18.2916 14.0392 18.2916 15.3638V22.8977H22.8878V19.3196C24.0791 21.7376 26.7239 23.2844 30.2133 23.2844C33.6449 23.2844 36.3786 21.6487 37.5432 19.1152V22.8933H42.1395V15.3593C42.1395 14.0348 43.4908 12.7636 44.8687 12.7636C46.3489 12.7636 47.2602 14.0348 47.2602 15.3593V22.8933H51.8564V19.3152C53.0477 21.7332 55.6925 23.28 59.1819 23.28C62.6668 23.28 65.4272 21.5909 66.5651 18.9907V22.8888H71.1125V21.382H71.1658C72.1526 22.471 73.7128 23.28 75.5309 23.28C79.4292 23.28 82.154 20.1375 82.154 16.2394C82.1496 12.3458 79.4248 9.17662 75.5264 9.17662ZM30.1866 19.3597C28.3153 19.3597 27.0706 18.0618 27.0706 16.2438C27.0706 14.3993 28.4486 13.1014 30.1866 13.1014C31.9024 13.1014 33.276 14.3993 33.276 16.2438C33.276 18.0618 31.978 19.3597 30.1866 19.3597ZM59.1552 19.3597C57.2838 19.3597 56.0392 18.0618 56.0392 16.2438C56.0392 14.3993 57.4172 13.1014 59.1552 13.1014C60.871 13.1014 62.2445 14.3993 62.2445 16.2438C62.249 18.0618 60.951 19.3597 59.1552 19.3597ZM74.1529 19.3597C72.3615 19.3597 71.0636 18.0618 71.0636 16.2438C71.0636 14.3993 72.4415 13.1014 74.1529 13.1014C75.8954 13.1014 77.2689 14.3993 77.2689 16.2438C77.2689 18.0618 76.0198 19.3597 74.1529 19.3597Z" fill="#101010"/>
<path d="M91.8981 11.6226C91.968 11.6398 92.041 11.6397 92.1109 11.6225L99.8497 9.71152C99.985 9.67813 99.9849 9.4859 99.8497 9.45258L92.1109 7.54574C92.041 7.52853 91.968 7.52853 91.8981 7.54576L84.1468 9.45675C84.0115 9.4901 84.0116 9.68243 84.1469 9.71571L91.8981 11.6226Z" fill="#8F3B89"/>
<path d="M93.0756 12.6916C92.8774 12.7408 92.7383 12.9188 92.7383 13.123V24.3724C92.7383 24.6613 93.0096 24.8734 93.29 24.8037L100.575 22.9934C100.774 22.9441 100.913 22.7662 100.913 22.562V11.3126C100.913 11.0237 100.641 10.8116 100.361 10.8812L93.0756 12.6916Z" fill="#6A2DCC"/>
<path d="M91.2579 13.1206C91.2579 12.9164 91.1187 12.7384 90.9205 12.6892L83.6394 10.8829C83.3591 10.8134 83.0879 11.0255 83.0879 11.3143V22.5595C83.0879 22.7637 83.227 22.9416 83.4251 22.9909L90.7062 24.8012C90.9866 24.8709 91.2579 24.6587 91.2579 24.3698V13.1206Z" fill="#6A2DCC"/>
</svg>
