<svg width="374" height="75" viewBox="0 0 374 75" fill="none" xmlns="http://www.w3.org/2000/svg">
<path d="M340.136 58.0472L350.53 40.9473L340.471 23.8474H348.518L356.23 37.5944H357.906L365.618 23.8474H373.665L363.606 40.9473L374 58.0472H365.953L357.906 43.9649H356.23L348.183 58.0472H340.136Z" fill="#161616"/>
<path d="M311.347 53.6213C307.949 50.179 306.25 45.9543 306.25 40.9472C306.25 35.9402 307.949 31.7379 311.347 28.3403C314.789 24.8979 319.014 23.1768 324.021 23.1768C329.028 23.1768 333.23 24.8979 336.628 28.3403C340.07 31.7379 341.791 35.9402 341.791 40.9472C341.791 45.9543 340.07 50.179 336.628 53.6213C333.23 57.0189 329.028 58.7177 324.021 58.7177C319.014 58.7177 314.789 57.0189 311.347 53.6213ZM316.51 32.6991C314.588 34.7555 313.627 37.5049 313.627 40.9472C313.627 44.3896 314.588 47.1613 316.51 49.2625C318.433 51.3189 320.936 52.3472 324.021 52.3472C327.105 52.3472 329.609 51.3189 331.531 49.2625C333.454 47.1613 334.415 44.3896 334.415 40.9472C334.415 37.5049 333.454 34.7555 331.531 32.6991C329.609 30.5979 327.105 29.5473 324.021 29.5473C320.936 29.5473 318.433 30.5979 316.51 32.6991Z" fill="#161616"/>
<path d="M270.736 58.0473V11.1064H277.777V28.2063H278.112C278.917 27.2675 279.833 26.4405 280.861 25.7252C283.276 24.0264 285.936 23.177 288.841 23.177C293.446 23.177 297.268 24.8311 300.308 28.1393C303.393 31.4028 304.935 35.6722 304.935 40.9474C304.935 46.2227 303.393 50.5144 300.308 53.8227C297.268 57.0862 293.446 58.7179 288.841 58.7179C285.891 58.7179 283.231 57.8909 280.861 56.2368C279.788 55.4768 278.872 54.6274 278.112 53.6885H277.777V58.0473H270.736ZM280.392 32.5651C278.648 34.5322 277.777 37.3263 277.777 40.9474C277.777 44.5686 278.648 47.3851 280.392 49.3968C282.18 51.3639 284.55 52.3474 287.5 52.3474C290.63 52.3474 293.088 51.3639 294.877 49.3968C296.665 47.4298 297.559 44.6133 297.559 40.9474C297.559 37.2816 296.665 34.4651 294.877 32.4981C293.088 30.531 290.63 29.5475 287.5 29.5475C284.55 29.5475 282.18 30.5534 280.392 32.5651Z" fill="#161616"/>
<path d="M236.948 53.6213C233.551 50.179 231.852 45.9543 231.852 40.9472C231.852 35.9402 233.551 31.7379 236.948 28.3403C240.391 24.8979 244.616 23.1768 249.623 23.1768C254.63 23.1768 258.832 24.8979 262.23 28.3403C265.672 31.7379 267.393 35.9402 267.393 40.9472C267.393 45.9543 265.672 50.179 262.23 53.6213C258.832 57.0189 254.63 58.7177 249.623 58.7177C244.616 58.7177 240.391 57.0189 236.948 53.6213ZM242.112 32.6991C240.19 34.7555 239.228 37.5049 239.228 40.9472C239.228 44.3896 240.19 47.1613 242.112 49.2625C244.034 51.3189 246.538 52.3472 249.623 52.3472C252.707 52.3472 255.211 51.3189 257.133 49.2625C259.055 47.1613 260.017 44.3896 260.017 40.9472C260.017 37.5049 259.055 34.7555 257.133 32.6991C255.211 30.5979 252.707 29.5473 249.623 29.5473C246.538 29.5473 244.034 30.5979 242.112 32.6991Z" fill="#161616"/>
<path d="M197.32 58.0471V23.8473H204.361V28.5414H204.696C205.232 27.6473 206.06 26.7532 207.177 25.8591C209.591 24.0709 212.341 23.1768 215.425 23.1768C219.672 23.1768 222.958 24.4062 225.283 26.865C227.652 29.3238 228.837 32.9002 228.837 37.5943V58.0471H221.796V38.2649C221.796 35.2696 221.125 33.0791 219.784 31.6932C218.488 30.2626 216.476 29.5473 213.749 29.5473C211.022 29.5473 208.764 30.4861 206.976 32.3638C205.232 34.1967 204.361 36.6108 204.361 39.6061V58.0471H197.32Z" fill="#161616"/>
<path d="M163.533 53.6213C160.135 50.179 158.436 45.9543 158.436 40.9472C158.436 35.9402 160.135 31.7379 163.533 28.3403C166.975 24.8979 171.2 23.1768 176.207 23.1768C181.214 23.1768 185.416 24.8979 188.814 28.3403C192.256 31.7379 193.977 35.9402 193.977 40.9472C193.977 45.9543 192.256 50.179 188.814 53.6213C185.416 57.0189 181.214 58.7177 176.207 58.7177C171.2 58.7177 166.975 57.0189 163.533 53.6213ZM168.696 32.6991C166.774 34.7555 165.813 37.5049 165.813 40.9472C165.813 44.3896 166.774 47.1613 168.696 49.2625C170.619 51.3189 173.122 52.3472 176.207 52.3472C179.291 52.3472 181.795 51.3189 183.717 49.2625C185.64 47.1613 186.601 44.3896 186.601 40.9472C186.601 37.5049 185.64 34.7555 183.717 32.6991C181.795 30.5979 179.291 29.5473 176.207 29.5473C173.122 29.5473 170.619 30.5979 168.696 32.6991Z" fill="#161616"/>
<path d="M102.097 58.0471V23.8473H109.138V28.5414H109.473C110.054 27.5579 110.814 26.6638 111.753 25.8591C113.899 24.0709 116.492 23.1768 119.532 23.1768C123.153 23.1768 126.081 24.2497 128.317 26.3956C129.255 27.2897 130.015 28.3403 130.597 29.5473H130.932C131.558 28.385 132.429 27.3344 133.547 26.3956C135.961 24.2497 139.001 23.1768 142.667 23.1768C146.646 23.1768 149.753 24.4285 151.988 26.932C154.268 29.3908 155.408 32.9449 155.408 37.5943V58.0471H148.367V37.9296C148.367 32.3414 145.908 29.5473 140.991 29.5473C138.621 29.5473 136.565 30.4861 134.821 32.3638C133.122 34.1967 132.273 36.499 132.273 39.2708V58.0471H125.232V37.9296C125.232 32.3414 122.773 29.5473 117.855 29.5473C115.486 29.5473 113.43 30.4861 111.686 32.3638C109.987 34.1967 109.138 36.499 109.138 39.2708V58.0471H102.097Z" fill="#161616"/>
<path d="M38.6634 0L77.3267 16.0312L38.6634 32.0623L0 16.0312L38.6634 0Z" fill="#7747FF"/>
<path d="M0.115967 16.019L38.664 32.0619V74.6023L0.115967 58.2206V16.019Z" fill="#7747FF"/>
<rect x="74.6985" y="16.0315" width="2.62827" height="36.8455" fill="#7747FF"/>
</svg>
