<svg width="18" height="4" viewBox="0 0 18 4" fill="none" xmlns="http://www.w3.org/2000/svg">
<path d="M2 0.25C1.0335 0.25 0.25 1.0335 0.25 2C0.25 2.9665 1.0335 3.75 2 3.75C2.9665 3.75 3.75 2.9665 3.75 2C3.75 1.0335 2.9665 0.25 2 0.25Z" fill="#F79009"/>
<path d="M7.25 2C7.25 1.0335 8.0335 0.25 9 0.25C9.9665 0.25 10.75 1.0335 10.75 2C10.75 2.9665 9.9665 3.75 9 3.75C8.0335 3.75 7.25 2.9665 7.25 2Z" fill="#F79009"/>
<path d="M14.25 2C14.25 1.0335 15.0335 0.25 16 0.25C16.9665 0.25 17.75 1.0335 17.75 2C17.75 2.9665 16.9665 3.75 16 3.75C15.0335 3.75 14.25 2.9665 14.25 2Z" fill="#F79009"/>
</svg>
