<svg width="12" height="14" viewBox="0 0 12 14" fill="none" xmlns="http://www.w3.org/2000/svg">
<path fill-rule="evenodd" clip-rule="evenodd" d="M5.82169 0.50692C6.16615 0.511157 6.56399 0.673971 6.77865 1.05757L6.90932 1.29107C8.90297 4.85372 10.5282 8.55698 11.7647 12.3561C11.928 12.8579 11.6589 13.2836 11.3227 13.4809C10.9939 13.6738 10.5415 13.6997 10.1585 13.4534L6.61295 11.1732C6.22109 10.9213 5.68927 10.9206 5.32224 11.1524L1.84863 13.3462C1.45711 13.5934 1.0028 13.5456 0.683854 13.3543C0.363512 13.162 0.0775098 12.7477 0.227038 12.242C1.34232 8.47003 2.84979 4.80316 4.73081 1.28584L4.85401 1.05546C5.0672 0.656822 5.47814 0.502695 5.82169 0.50692ZM5.81631 1.64162L5.72286 1.81637C3.91891 5.18959 2.46592 8.7015 1.3803 12.3114L4.72152 10.2012C5.47058 9.72816 6.47409 9.74641 7.22145 10.227L10.5935 12.3955C9.39317 8.77569 7.83209 5.24381 5.92758 1.84045L5.81631 1.64162Z" fill="#DC6803"/>
</svg>
