<svg width="22" height="18" viewBox="0 0 22 18" fill="none" xmlns="http://www.w3.org/2000/svg">
<path d="M14.2504 9.00012C14.2504 8.17169 14.922 7.50012 15.7504 7.50012C16.5789 7.50012 17.2504 8.17169 17.2504 9.00012C17.2504 9.82855 16.5789 10.5001 15.7504 10.5001C14.922 10.5001 14.2504 9.82855 14.2504 9.00012Z" fill="#505050"/>
<path fill-rule="evenodd" clip-rule="evenodd" d="M19.1918 3.67414C18.534 2.12848 17.0806 1.01735 15.3511 0.835354L14.6992 0.766758C11.4069 0.420305 8.08617 0.443152 4.79893 0.834872L4.36699 0.886343C2.6982 1.0852 1.37595 2.38901 1.15367 4.05485C0.715704 7.33716 0.715704 10.6631 1.15367 13.9454C1.37595 15.6113 2.6982 16.9151 4.36699 17.1139L4.79894 17.1654C8.08618 17.5571 11.4069 17.58 14.6992 17.2335L15.3511 17.1649C17.0806 16.9829 18.534 15.8718 19.1918 14.3261C20.231 14.0167 21.0242 13.1157 21.1544 12.0025C21.3877 10.0077 21.3877 7.99255 21.1544 5.99776C21.0242 4.88454 20.231 3.98356 19.1918 3.67414ZM14.5423 2.25852C11.3612 1.92377 8.15261 1.94585 4.97642 2.32433L4.54448 2.37581C3.55567 2.49364 2.7722 3.26618 2.64049 4.25324C2.2201 7.40388 2.2201 10.5964 2.64049 13.747C2.7722 14.7341 3.55567 15.5066 4.54448 15.6245L4.97642 15.6759C8.15261 16.0544 11.3612 16.0765 14.5423 15.7417L15.1941 15.6732C16.0447 15.5836 16.7972 15.1644 17.3188 14.5421C15.8106 14.63 14.2824 14.5907 12.7922 14.4242C11.5228 14.2823 10.4962 13.2828 10.3465 12.0025C10.1132 10.0077 10.1132 7.99255 10.3465 5.99776C10.4962 4.7175 11.5228 3.71796 12.7922 3.57609C14.2824 3.40954 15.8106 3.37024 17.3188 3.45819C16.7972 2.83587 16.0447 2.41662 15.1941 2.32712L14.5423 2.25852ZM18.0278 5.01483C18.0284 5.01867 18.029 5.02251 18.0296 5.02635L18.0357 5.06524L18.2343 5.03439C18.3371 5.04456 18.4397 5.05537 18.5421 5.06681C19.1295 5.13246 19.5973 5.59661 19.6646 6.17201C19.8843 8.05102 19.8843 9.94924 19.6646 11.8283C19.5973 12.4037 19.1295 12.8678 18.5421 12.9335C18.4397 12.9449 18.3371 12.9557 18.2343 12.9659L18.0357 12.935L18.0296 12.9739C18.029 12.9778 18.0284 12.9816 18.0278 12.9854C16.3492 13.1373 14.6276 13.12 12.9588 12.9335C12.3714 12.8678 11.9036 12.4037 11.8363 11.8283C11.6166 9.94925 11.6166 8.05102 11.8363 6.17201C11.9036 5.59661 12.3714 5.13246 12.9588 5.06681C14.6276 4.8803 16.3492 4.86297 18.0278 5.01483Z" fill="#505050"/>
</svg>
