<svg width="15" height="16" viewBox="0 0 15 16" fill="none" xmlns="http://www.w3.org/2000/svg">
<path fill-rule="evenodd" clip-rule="evenodd" d="M10.6144 0.890578C10.4972 0.773368 10.3382 0.70752 10.1725 0.70752C10.0067 0.70752 9.84772 0.773368 9.73051 0.890578L2.07018 8.5509C1.99166 8.62942 1.93548 8.72745 1.90741 8.83489L1.07408 12.0252C1.01801 12.2399 1.07996 12.4682 1.23685 12.6251C1.39375 12.782 1.62207 12.844 1.83675 12.7879L5.0271 11.9546C5.13454 11.9265 5.23257 11.8703 5.31109 11.7918L12.9714 4.13148C13.2155 3.88741 13.2155 3.49168 12.9714 3.2476L10.6144 0.890578ZM3.07398 9.31487L10.1725 2.2164L11.6456 3.68954L4.54712 10.788L2.55315 11.3088L3.07398 9.31487Z" fill="#969696"/>
<path d="M1.33362 14.0409C0.98844 14.0409 0.708618 14.3207 0.708618 14.6659C0.708618 15.011 0.98844 15.2909 1.33362 15.2909H13.8336C14.1788 15.2909 14.4586 15.011 14.4586 14.6659C14.4586 14.3207 14.1788 14.0409 13.8336 14.0409H1.33362Z" fill="#969696"/>
</svg>
