<svg width="31" height="30" viewBox="0 0 31 30" fill="none" xmlns="http://www.w3.org/2000/svg">
<path fill-rule="evenodd" clip-rule="evenodd" d="M4.73388 11.9271C7.71273 18.4136 13.0135 23.5705 19.6031 26.3649L19.624 26.3737L20.897 26.9411C22.518 27.6633 24.4234 27.1504 25.4627 25.7119L27.5867 22.7723C27.7164 22.5928 27.683 22.3431 27.5106 22.204L23.8027 19.2127C23.6184 19.064 23.3473 19.0986 23.2063 19.2889L21.7632 21.2362C21.4127 21.7091 20.7798 21.8735 20.2435 21.6308C15.3162 19.4009 11.3567 15.4414 9.1268 10.514C8.88411 9.97777 9.04844 9.34484 9.52135 8.99438L11.4686 7.55128C11.6589 7.41027 11.6936 7.13922 11.5449 6.95489L8.55312 3.24649C8.41407 3.07413 8.16449 3.04065 7.98495 3.17027L5.02946 5.30387C3.58147 6.34918 3.07155 8.27059 3.81065 9.89635L4.73288 11.9249C4.73321 11.9257 4.73355 11.9264 4.73388 11.9271ZM18.6166 28.662C11.4566 25.6227 5.69766 20.0177 2.46092 12.9681L2.45897 12.9639L1.5348 10.931C0.302963 8.22141 1.15284 5.01906 3.56615 3.27687L6.52163 1.14327C7.7785 0.235931 9.52555 0.470272 10.4989 1.67676L13.4906 5.38517C14.5315 6.67545 14.2891 8.57278 12.9572 9.55984L11.8413 10.3868C13.7262 14.0441 16.7135 17.0314 20.3708 18.9163L21.1977 17.8004C22.1848 16.4685 24.0821 16.226 25.3724 17.2669L29.0803 20.2583C30.2872 21.2319 30.5212 22.9796 29.6131 24.2365L27.4891 27.1761C25.7569 29.5735 22.5813 30.4284 19.8795 29.2247L18.6166 28.662Z" fill="#313131"/>
</svg>
