<svg width="26" height="23" viewBox="0 0 26 23" fill="none" xmlns="http://www.w3.org/2000/svg">
<path fill-rule="evenodd" clip-rule="evenodd" d="M8.0007 12.3332C8.0007 9.57175 10.2393 7.33317 13.0007 7.33317C15.7621 7.33317 18.0007 9.57175 18.0007 12.3332C18.0007 15.0946 15.7621 17.3332 13.0007 17.3332C10.2393 17.3332 8.0007 15.0946 8.0007 12.3332ZM13.0007 9.33317C11.3438 9.33317 10.0007 10.6763 10.0007 12.3332C10.0007 13.99 11.3438 15.3332 13.0007 15.3332C14.6576 15.3332 16.0007 13.99 16.0007 12.3332C16.0007 10.6763 14.6576 9.33317 13.0007 9.33317Z" fill="#313131"/>
<path fill-rule="evenodd" clip-rule="evenodd" d="M11.1555 2.6665C9.76198 2.6665 8.63228 3.79621 8.63228 5.18977C8.63228 6.07772 7.95065 6.81695 7.06561 6.88883L4.09281 7.13026C3.50912 7.17766 3.02908 7.60929 2.92013 8.18468C2.32181 11.3447 2.27719 14.5846 2.78828 17.7599L2.91795 18.5655C3.04041 19.3263 3.66659 19.9052 4.43466 19.9675L7.02443 20.1779C11.0021 20.5009 14.9993 20.5009 18.977 20.1779L21.5667 19.9675C22.3348 19.9052 22.961 19.3263 23.0834 18.5655L23.2131 17.7599C23.7242 14.5846 23.6796 11.3447 23.0813 8.18469C22.9723 7.60929 22.4923 7.17766 21.9086 7.13026L18.9358 6.88883C18.0508 6.81695 17.3691 6.07772 17.3691 5.18977C17.3691 3.79621 16.2394 2.6665 14.8459 2.6665H11.1555ZM6.64038 4.91678C6.78152 2.54575 8.74907 0.666504 11.1555 0.666504H14.8459C17.2523 0.666504 19.2199 2.54575 19.361 4.91678L22.0705 5.13682C23.5517 5.25712 24.7699 6.35246 25.0463 7.81261C25.6878 11.2003 25.7356 14.6737 25.1877 18.0777L25.058 18.8833C24.7892 20.5534 23.4147 21.824 21.7286 21.961L19.1389 22.1713C15.0535 22.5031 10.9479 22.5031 6.86254 22.1713L4.27277 21.961C2.58673 21.824 1.21218 20.5534 0.943364 18.8834L0.813697 18.0778C0.265786 14.6737 0.313614 11.2003 0.955047 7.81261C1.23152 6.35246 2.4497 5.25712 3.93092 5.13682L6.64038 4.91678Z" fill="#313131"/>
</svg>
