<svg width="33" height="32" viewBox="0 0 33 32" fill="none" xmlns="http://www.w3.org/2000/svg">
<path fill-rule="evenodd" clip-rule="evenodd" d="M16.9327 8.3335C17.485 8.3335 17.9327 8.78121 17.9327 9.3335V22.6668C17.9327 23.2191 17.485 23.6668 16.9327 23.6668C16.3804 23.6668 15.9327 23.2191 15.9327 22.6668V9.3335C15.9327 8.78121 16.3804 8.3335 16.9327 8.3335Z" fill="#101010"/>
<path fill-rule="evenodd" clip-rule="evenodd" d="M24.5994 16C24.5994 16.5523 24.1517 17 23.5994 17L10.2661 17C9.71378 17 9.26606 16.5523 9.26606 16C9.26606 15.4477 9.71378 15 10.2661 15L23.5994 15C24.1517 15 24.5994 15.4477 24.5994 16Z" fill="#101010"/>
</svg>
