<svg width="18" height="20" viewBox="0 0 18 20" fill="none" xmlns="http://www.w3.org/2000/svg">
<path fill-rule="evenodd" clip-rule="evenodd" d="M3.25 3.5C3.25 1.70507 4.70507 0.25 6.5 0.25C7.50522 0.25 8.40385 0.706367 9 1.42322C9.59615 0.706367 10.4948 0.25 11.5 0.25C13.2949 0.25 14.75 1.70507 14.75 3.5C14.75 4.14432 14.5625 4.74485 14.2391 5.25H15C16.5188 5.25 17.75 6.48122 17.75 8V10C17.75 10.8042 17.2076 11.4816 16.4687 11.6865C16.6128 13.5131 16.5293 15.3517 16.2195 17.1597C16.0345 18.2394 15.1576 19.0665 14.069 19.1881L13.1545 19.2903C10.3934 19.5989 7.60656 19.5989 4.84548 19.2903L3.93101 19.1881C2.84239 19.0665 1.96552 18.2394 1.78052 17.1597C1.47069 15.3517 1.38724 13.5131 1.53131 11.6865C0.792399 11.4816 0.25 10.8042 0.25 10V8C0.25 6.48122 1.48122 5.25 3 5.25H3.76091C3.4375 4.74485 3.25 4.14432 3.25 3.5ZM8.25 3.5C8.25 2.5335 7.4665 1.75 6.5 1.75C5.5335 1.75 4.75 2.5335 4.75 3.5C4.75 4.4665 5.5335 5.25 6.5 5.25C7.4665 5.25 8.25 4.4665 8.25 3.5ZM11.5 5.25C12.4665 5.25 13.25 4.4665 13.25 3.5C13.25 2.5335 12.4665 1.75 11.5 1.75C10.5335 1.75 9.75 2.5335 9.75 3.5C9.75 4.4665 10.5335 5.25 11.5 5.25ZM1.75 8C1.75 7.30964 2.30964 6.75 3 6.75H8.25V10.25H2C1.86193 10.25 1.75 10.1381 1.75 10V8ZM9.75 11.75H14.969C15.1093 13.4706 15.0329 15.203 14.741 16.9064C14.6689 17.3274 14.3269 17.65 13.9024 17.6974L12.9879 17.7996C11.9116 17.9199 10.8312 17.9914 9.75 18.014V11.75ZM9.75 10.25H16C16.1381 10.25 16.25 10.1381 16.25 10V8C16.25 7.30964 15.6904 6.75 15 6.75H9.75V10.25ZM8.25 11.75V18.014C7.16882 17.9914 6.08842 17.9199 5.01209 17.7996L4.09762 17.6974C3.67308 17.65 3.33112 17.3274 3.25897 16.9064C2.96708 15.203 2.89074 13.4706 3.03103 11.75H8.25Z" fill="#DC6803"/>
</svg>
