<svg width="19" height="21" viewBox="0 0 19 21" fill="none" xmlns="http://www.w3.org/2000/svg">
<path fill-rule="evenodd" clip-rule="evenodd" d="M4.70833 5.75033C4.70833 3.01191 6.92825 0.791992 9.66667 0.791992C12.4051 0.791992 14.625 3.01191 14.625 5.75033C14.625 8.48874 12.4051 10.7087 9.66667 10.7087C6.92825 10.7087 4.70833 8.48874 4.70833 5.75033ZM9.66667 2.54199C7.89475 2.54199 6.45833 3.97841 6.45833 5.75033C6.45833 7.52224 7.89475 8.95866 9.66667 8.95866C11.4386 8.95866 12.875 7.52224 12.875 5.75033C12.875 3.97841 11.4386 2.54199 9.66667 2.54199Z" fill="#969696"/>
<path fill-rule="evenodd" clip-rule="evenodd" d="M5 14.2087C3.55025 14.2087 2.375 15.3839 2.375 16.8337V18.22C2.375 18.2411 2.3903 18.2591 2.41113 18.2625C7.21634 19.047 12.117 19.047 16.9222 18.2625C16.943 18.2591 16.9583 18.2411 16.9583 18.22V16.8337C16.9583 15.3839 15.7831 14.2087 14.3333 14.2087H13.9357C13.9049 14.2087 13.8743 14.2135 13.8451 14.2231L12.8354 14.5528C10.7764 15.2251 8.55694 15.2251 6.49798 14.5528L5.48821 14.2231C5.45898 14.2135 5.42843 14.2087 5.39768 14.2087H5ZM0.625 16.8337C0.625 14.4174 2.58375 12.4587 5 12.4587H5.39768C5.61292 12.4587 5.82681 12.4927 6.03142 12.5595L7.04118 12.8892C8.74718 13.4463 10.5861 13.4463 12.2921 12.8892L13.3019 12.5595C13.5065 12.4927 13.7204 12.4587 13.9357 12.4587H14.3333C16.7496 12.4587 18.7083 14.4174 18.7083 16.8337V18.22C18.7083 19.0988 18.0715 19.848 17.2042 19.9896C12.2122 20.8046 7.12112 20.8046 2.12915 19.9896C1.26186 19.848 0.625 19.0988 0.625 18.22V16.8337Z" fill="#969696"/>
</svg>
