<svg width="20" height="20" viewBox="0 0 20 20" fill="none" xmlns="http://www.w3.org/2000/svg">
<path d="M9.99967 0.375C7.58343 0.375 5.62467 2.33375 5.62467 4.75C5.62467 7.16625 7.58343 9.125 9.99967 9.125C12.4159 9.125 14.3747 7.16625 14.3747 4.75C14.3747 2.33375 12.4159 0.375 9.99967 0.375Z" fill="#F79009"/>
<path d="M5.33301 11.4583C2.91676 11.4583 0.958008 13.4171 0.958008 15.8333V17.2197C0.958008 18.0984 1.59487 18.8477 2.46216 18.9893C7.45412 19.8043 12.5452 19.8043 17.5372 18.9893C18.4045 18.8477 19.0413 18.0984 19.0413 17.2197V15.8333C19.0413 13.4171 17.0826 11.4583 14.6663 11.4583H14.2687C14.0534 11.4583 13.8395 11.4924 13.6349 11.5592L12.6252 11.8889C10.9192 12.446 9.08019 12.446 7.37419 11.8889L6.36443 11.5592C6.15982 11.4924 5.94593 11.4583 5.73069 11.4583H5.33301Z" fill="#F79009"/>
</svg>
