<svg width="28" height="28" viewBox="0 0 28 28" fill="none" xmlns="http://www.w3.org/2000/svg">
<path d="M2.33398 8.16683V8.16683C2.33398 6.45939 2.33398 5.60567 2.59036 4.9245C2.99611 3.84644 3.84692 2.99563 4.92499 2.58987C5.60616 2.3335 6.45988 2.3335 8.16732 2.3335V2.3335M2.33398 19.8335V19.8335C2.33398 21.5409 2.33398 22.3947 2.59036 23.0758C2.99611 24.1539 3.84692 25.0047 4.92499 25.4105C5.60616 25.6668 6.45988 25.6668 8.16732 25.6668V25.6668M19.834 25.6668V25.6668C21.5414 25.6668 22.3951 25.6668 23.0763 25.4105C24.1544 25.0047 25.0052 24.1539 25.4109 23.0758C25.6673 22.3947 25.6673 21.5409 25.6673 19.8335V19.8335M25.6673 8.16683V8.16683C25.6673 6.45939 25.6673 5.60567 25.4109 4.9245C25.0052 3.84644 24.1544 2.99563 23.0763 2.58987C22.3951 2.3335 21.5414 2.3335 19.834 2.3335V2.3335" stroke="#313131" stroke-width="1.5" stroke-linecap="round" stroke-linejoin="round"/>
<mask id="path-2-inside-1_1633_17906" fill="white">
<path d="M5.83398 7.4335C5.83398 6.87344 5.83398 6.59342 5.94298 6.37951C6.03885 6.19134 6.19183 6.03836 6.37999 5.94249C6.59391 5.8335 6.87393 5.8335 7.43398 5.8335H11.234C11.794 5.8335 12.0741 5.8335 12.288 5.94249C12.4761 6.03836 12.6291 6.19134 12.725 6.37951C12.834 6.59342 12.834 6.87344 12.834 7.4335V11.2335C12.834 11.7935 12.834 12.0736 12.725 12.2875C12.6291 12.4756 12.4761 12.6286 12.288 12.7245C12.0741 12.8335 11.794 12.8335 11.234 12.8335H7.43398C6.87393 12.8335 6.59391 12.8335 6.37999 12.7245C6.19183 12.6286 6.03885 12.4756 5.94298 12.2875C5.83398 12.0736 5.83398 11.7935 5.83398 11.2335V7.4335Z"/>
</mask>
<path d="M5.83398 7.4335C5.83398 6.87344 5.83398 6.59342 5.94298 6.37951C6.03885 6.19134 6.19183 6.03836 6.37999 5.94249C6.59391 5.8335 6.87393 5.8335 7.43398 5.8335H11.234C11.794 5.8335 12.0741 5.8335 12.288 5.94249C12.4761 6.03836 12.6291 6.19134 12.725 6.37951C12.834 6.59342 12.834 6.87344 12.834 7.4335V11.2335C12.834 11.7935 12.834 12.0736 12.725 12.2875C12.6291 12.4756 12.4761 12.6286 12.288 12.7245C12.0741 12.8335 11.794 12.8335 11.234 12.8335H7.43398C6.87393 12.8335 6.59391 12.8335 6.37999 12.7245C6.19183 12.6286 6.03885 12.4756 5.94298 12.2875C5.83398 12.0736 5.83398 11.7935 5.83398 11.2335V7.4335Z" stroke="#313131" stroke-width="3.6" mask="url(#path-2-inside-1_1633_17906)"/>
<mask id="path-3-inside-2_1633_17906" fill="white">
<path d="M5.83398 16.7665C5.83398 16.2065 5.83398 15.9264 5.94298 15.7125C6.03885 15.5244 6.19183 15.3714 6.37999 15.2755C6.59391 15.1665 6.87393 15.1665 7.43398 15.1665H11.234C11.794 15.1665 12.0741 15.1665 12.288 15.2755C12.4761 15.3714 12.6291 15.5244 12.725 15.7125C12.834 15.9264 12.834 16.2065 12.834 16.7665V20.5665C12.834 21.1266 12.834 21.4066 12.725 21.6205C12.6291 21.8087 12.4761 21.9616 12.288 22.0575C12.0741 22.1665 11.794 22.1665 11.234 22.1665H7.43398C6.87393 22.1665 6.59391 22.1665 6.37999 22.0575C6.19183 21.9616 6.03885 21.8087 5.94298 21.6205C5.83398 21.4066 5.83398 21.1266 5.83398 20.5665V16.7665Z"/>
</mask>
<path d="M5.83398 16.7665C5.83398 16.2065 5.83398 15.9264 5.94298 15.7125C6.03885 15.5244 6.19183 15.3714 6.37999 15.2755C6.59391 15.1665 6.87393 15.1665 7.43398 15.1665H11.234C11.794 15.1665 12.0741 15.1665 12.288 15.2755C12.4761 15.3714 12.6291 15.5244 12.725 15.7125C12.834 15.9264 12.834 16.2065 12.834 16.7665V20.5665C12.834 21.1266 12.834 21.4066 12.725 21.6205C12.6291 21.8087 12.4761 21.9616 12.288 22.0575C12.0741 22.1665 11.794 22.1665 11.234 22.1665H7.43398C6.87393 22.1665 6.59391 22.1665 6.37999 22.0575C6.19183 21.9616 6.03885 21.8087 5.94298 21.6205C5.83398 21.4066 5.83398 21.1266 5.83398 20.5665V16.7665Z" stroke="#313131" stroke-width="3.6" mask="url(#path-3-inside-2_1633_17906)"/>
<path d="M21.529 22.0393C21.2794 22.1665 20.9527 22.1665 20.2993 22.1665L19.541 22.1665C19.0578 22.1665 18.666 21.7747 18.666 21.2915C18.666 20.8082 19.0578 20.4165 19.541 20.4165L20.416 20.4164L20.416 20.2998L20.416 16.0415C20.416 15.5583 20.8077 15.1665 21.291 15.1665C21.7742 15.1665 22.166 15.5583 22.166 16.0415V17.0331V20.2998C22.166 20.9532 22.166 21.2799 22.0388 21.5295C21.927 21.749 21.7485 21.9275 21.529 22.0393Z" fill="#313131"/>
<path d="M16.766 15.1665C16.206 15.1665 15.9259 15.1665 15.712 15.2755C15.5239 15.3714 15.3709 15.5244 15.275 15.7125C15.166 15.9264 15.166 16.2065 15.166 16.7665L15.166 17.0665C15.166 17.6266 15.166 17.9066 15.275 18.1205C15.3709 18.3087 15.5239 18.4616 15.712 18.5575C15.9259 18.6665 16.206 18.6665 16.766 18.6665L17.066 18.6665C17.6261 18.6665 17.9061 18.6665 18.12 18.5575C18.3082 18.4616 18.4611 18.3087 18.557 18.1205C18.666 17.9066 18.666 17.6266 18.666 17.0665L18.666 16.7665C18.666 16.2065 18.666 15.9264 18.557 15.7125C18.4611 15.5244 18.3082 15.3714 18.12 15.2755C17.9061 15.1665 17.6261 15.1665 17.066 15.1665L16.766 15.1665Z" fill="#313131"/>
<path d="M16.3327 19.8332C16.1779 19.8332 16.1005 19.8332 16.0355 19.8417C15.5868 19.9008 15.2336 20.2539 15.1746 20.7026C15.166 20.7676 15.166 20.845 15.166 20.9998C15.166 21.1546 15.166 21.232 15.1746 21.297C15.2336 21.7458 15.5868 22.0989 16.0355 22.1579C16.1005 22.1665 16.1779 22.1665 16.3327 22.1665C16.4875 22.1665 16.5649 22.1665 16.6299 22.1579C17.0786 22.0989 17.4317 21.7458 17.4908 21.297C17.4993 21.232 17.4993 21.1546 17.4993 20.9998C17.4993 20.845 17.4993 20.7676 17.4908 20.7026C17.4317 20.2539 17.0786 19.9008 16.6299 19.8417C16.5649 19.8332 16.4875 19.8332 16.3327 19.8332Z" fill="#313131"/>
<mask id="path-7-inside-3_1633_17906" fill="white">
<path d="M15.166 7.4335C15.166 6.87344 15.166 6.59342 15.275 6.37951C15.3709 6.19134 15.5239 6.03836 15.712 5.94249C15.9259 5.8335 16.206 5.8335 16.766 5.8335H20.566C21.1261 5.8335 21.4061 5.8335 21.62 5.94249C21.8082 6.03836 21.9611 6.19134 22.057 6.37951C22.166 6.59342 22.166 6.87344 22.166 7.4335V11.2335C22.166 11.7935 22.166 12.0736 22.057 12.2875C21.9611 12.4756 21.8082 12.6286 21.62 12.7245C21.4061 12.8335 21.1261 12.8335 20.566 12.8335H16.766C16.206 12.8335 15.9259 12.8335 15.712 12.7245C15.5239 12.6286 15.3709 12.4756 15.275 12.2875C15.166 12.0736 15.166 11.7935 15.166 11.2335V7.4335Z"/>
</mask>
<path d="M15.166 7.4335C15.166 6.87344 15.166 6.59342 15.275 6.37951C15.3709 6.19134 15.5239 6.03836 15.712 5.94249C15.9259 5.8335 16.206 5.8335 16.766 5.8335H20.566C21.1261 5.8335 21.4061 5.8335 21.62 5.94249C21.8082 6.03836 21.9611 6.19134 22.057 6.37951C22.166 6.59342 22.166 6.87344 22.166 7.4335V11.2335C22.166 11.7935 22.166 12.0736 22.057 12.2875C21.9611 12.4756 21.8082 12.6286 21.62 12.7245C21.4061 12.8335 21.1261 12.8335 20.566 12.8335H16.766C16.206 12.8335 15.9259 12.8335 15.712 12.7245C15.5239 12.6286 15.3709 12.4756 15.275 12.2875C15.166 12.0736 15.166 11.7935 15.166 11.2335V7.4335Z" stroke="#313131" stroke-width="3.6" mask="url(#path-7-inside-3_1633_17906)"/>
</svg>
