<svg width="16" height="20" viewBox="0 0 16 20" fill="none" xmlns="http://www.w3.org/2000/svg">
<path fill-rule="evenodd" clip-rule="evenodd" d="M8.99921 1C8.99921 0.447715 8.55149 0 7.99921 0C7.44692 0 6.99921 0.447715 6.99921 1V1.75H6.44179C4.21672 1.75 2.37512 3.48001 2.23622 5.70074L2.01522 9.2342C1.93096 10.5814 1.47867 11.8797 0.70761 12.9876C0.0109285 13.9886 0.631149 15.3712 1.84208 15.5165L5.24921 15.9254V17C5.24921 18.5188 6.48042 19.75 7.99921 19.75C9.51799 19.75 10.7492 18.5188 10.7492 17V15.9254L14.1563 15.5165C15.3673 15.3712 15.9875 13.9886 15.2908 12.9876C14.5197 11.8797 14.0674 10.5814 13.9832 9.2342L13.7622 5.70074C13.6233 3.48001 11.7817 1.75 9.55661 1.75H8.99921V1ZM6.44179 3.25C5.00879 3.25 3.82275 4.36417 3.7333 5.79438L3.5123 9.32784C3.4109 10.949 2.86664 12.5112 1.9388 13.8444C1.88844 13.9168 1.93327 14.0167 2.0208 14.0272L5.75846 14.4757C7.24695 14.6543 8.75146 14.6543 10.2399 14.4757L13.9776 14.0272C14.0651 14.0167 14.11 13.9168 14.0596 13.8444C13.1318 12.5112 12.5875 10.949 12.4861 9.32784L12.2651 5.79438C12.1757 4.36417 10.9896 3.25 9.55661 3.25H6.44179ZM7.99921 18.25C7.30885 18.25 6.74921 17.6904 6.74921 17V16.25H9.24921V17C9.24921 17.6904 8.68956 18.25 7.99921 18.25Z" fill="#313131"/>
</svg>
