<svg width="16" height="18" viewBox="0 0 16 18" fill="none" xmlns="http://www.w3.org/2000/svg">
<path d="M0.628906 4.17578L2.83121 7.87432V10.1303L0.631483 13.8216L0.628906 4.17578Z" fill="#5B57A2"/>
<path d="M9.08496 6.52899L11.1486 5.34062L15.3719 5.33691L9.08496 8.95557V6.52899Z" fill="#D90751"/>
<path d="M9.07274 4.15443L9.08441 9.05116L6.87695 7.77679V0.457031L9.07274 4.15443Z" fill="#FAB718"/>
<path d="M15.3714 5.33682L11.1479 5.34053L9.07274 4.15443L6.87695 0.457031L15.3714 5.33682Z" fill="#ED6F26"/>
<path d="M9.08441 13.8427V11.467L6.87695 10.2168L6.87817 17.5438L9.08441 13.8427Z" fill="#63B22F"/>
<path d="M11.1433 12.6645L2.83105 7.87432L0.628906 4.17578L15.3629 12.6597L11.1433 12.6645Z" fill="#1487C9"/>
<path d="M6.87891 17.5436L9.08484 13.8425L11.1433 12.665L15.3629 12.6602L6.87891 17.5436Z" fill="#017F36"/>
<path d="M0.630859 13.8222L6.8948 10.2169L4.78889 9.00293L2.83058 10.1309L0.630859 13.8222Z" fill="#984995"/>
</svg>
