<svg width="24" height="26" viewBox="0 0 24 26" fill="none" xmlns="http://www.w3.org/2000/svg">
<path fill-rule="evenodd" clip-rule="evenodd" d="M15.0002 4.33333C15.0002 1.9401 16.9403 0 19.3335 0C21.7267 0 23.6668 1.9401 23.6668 4.33333C23.6668 6.72657 21.7267 8.66667 19.3335 8.66667C18.054 8.66667 16.904 8.11212 16.1108 7.23027L12.4877 9.20649L8.43369 11.5231C8.79419 12.1552 9.00016 12.8869 9.00016 13.6667C9.00016 14.0618 8.94728 14.4446 8.8482 14.8083L16.1108 18.7697C16.904 17.8879 18.054 17.3333 19.3335 17.3333C21.7267 17.3333 23.6668 19.2734 23.6668 21.6667C23.6668 24.0599 21.7267 26 19.3335 26C16.9403 26 15.0002 24.0599 15.0002 21.6667C15.0002 21.2715 15.053 20.8887 15.1521 20.525L7.88955 16.5636C7.09632 17.4455 5.94634 18 4.66683 18C2.2736 18 0.333496 16.0599 0.333496 13.6667C0.333496 11.2734 2.2736 9.33333 4.66683 9.33333C5.5344 9.33333 6.34242 9.58829 7.02006 10.0274L11.5126 7.46018L15.1521 5.475C15.053 5.11126 15.0002 4.72847 15.0002 4.33333ZM19.3335 2C18.0448 2 17.0002 3.04467 17.0002 4.33333C17.0002 5.622 18.0448 6.66667 19.3335 6.66667C20.6222 6.66667 21.6668 5.622 21.6668 4.33333C21.6668 3.04467 20.6222 2 19.3335 2ZM4.66683 11.3333C3.37816 11.3333 2.3335 12.378 2.3335 13.6667C2.3335 14.9553 3.37816 16 4.66683 16C5.95549 16 7.00016 14.9553 7.00016 13.6667C7.00016 12.378 5.95549 11.3333 4.66683 11.3333ZM17.0002 21.6667C17.0002 20.378 18.0448 19.3333 19.3335 19.3333C20.6222 19.3333 21.6668 20.378 21.6668 21.6667C21.6668 22.9553 20.6222 24 19.3335 24C18.0448 24 17.0002 22.9553 17.0002 21.6667Z" fill="#313131"/>
</svg>
