<svg width="24" height="24" viewBox="0 0 24 24" fill="none" xmlns="http://www.w3.org/2000/svg">
<path fill-rule="evenodd" clip-rule="evenodd" d="M10.4873 4.11437C11.1617 2.95211 12.8401 2.95211 13.5146 4.11438L15.5799 7.67374C15.7703 8.00182 16.0993 8.22571 16.4744 8.28236L19.9041 8.80037C21.3991 9.02617 21.9234 10.9137 20.7592 11.8783L18.2603 13.9486C17.9095 14.2392 17.7446 14.6976 17.8298 15.145L18.5298 18.821C18.804 20.261 17.2924 21.3798 15.9953 20.6968L12.5833 18.9002C12.2188 18.7083 11.7831 18.7083 11.4186 18.9002L8.00652 20.6968C6.7095 21.3798 5.19788 20.261 5.47208 18.821L6.17206 15.145C6.25726 14.6976 6.09234 14.2392 5.7416 13.9486L3.2427 11.8783C2.07841 10.9137 2.60281 9.02617 4.09781 8.80037L7.52746 8.28236C7.90252 8.22571 8.23157 8.00182 8.42194 7.67374L10.4873 4.11437ZM12.2172 4.8672C12.1208 4.70117 11.881 4.70117 11.7847 4.8672L9.71934 8.42656C9.30052 9.14835 8.57661 9.64091 7.75147 9.76554L4.32183 10.2835C4.10825 10.3158 4.03334 10.5855 4.19967 10.7233L6.69857 12.7936C7.4702 13.4329 7.83302 14.4413 7.64558 15.4256L6.9456 19.1016C6.90643 19.3073 7.12237 19.4671 7.30766 19.3696L10.7197 17.573C11.5217 17.1507 12.4802 17.1507 13.2822 17.573L16.6942 19.3696C16.8795 19.4671 17.0954 19.3073 17.0563 19.1016L16.3563 15.4256C16.1688 14.4413 16.5317 13.4329 17.3033 12.7936L19.8022 10.7233C19.9685 10.5855 19.8936 10.3158 19.68 10.2835L16.2504 9.76554C15.4252 9.64091 14.7013 9.14835 14.2825 8.42657L12.2172 4.8672Z" fill="#313131"/>
</svg>
