<svg width="21" height="18" viewBox="0 0 21 18" fill="none" xmlns="http://www.w3.org/2000/svg">
<path fill-rule="evenodd" clip-rule="evenodd" d="M17.4823 16.7902L17.483 16.7885L17.5004 16.745L20.4992 1.62592V1.57682C20.4992 1.20012 20.36 0.871256 20.0571 0.673996C19.792 0.501334 19.4873 0.489038 19.2736 0.505258C19.0476 0.522413 18.8344 0.578829 18.6869 0.625789C18.611 0.649949 18.5475 0.673227 18.502 0.690834C18.4792 0.69967 18.4608 0.707169 18.4473 0.712755L18.4341 0.718313L1.71429 7.27725L1.70968 7.2789C1.70065 7.28219 1.68871 7.28664 1.67429 7.29225C1.64553 7.30345 1.60639 7.31946 1.56041 7.3403C1.47013 7.38122 1.3454 7.44436 1.21889 7.53099C1.00404 7.67812 0.594928 8.02645 0.66401 8.57867C0.721231 9.03608 1.03653 9.32658 1.2491 9.47698C1.36305 9.55761 1.47206 9.61575 1.55189 9.65375C1.59234 9.67301 1.6267 9.68776 1.65228 9.69818C1.66511 9.7034 1.67584 9.70758 1.68414 9.71073L1.69476 9.71469L1.70156 9.71721L4.6268 10.702C4.61692 10.8856 4.63513 11.0727 4.6838 11.2573L6.14908 16.8157C6.32282 17.4748 6.91905 17.9339 7.60062 17.9334C8.21155 17.9329 8.75337 17.5633 8.98356 17.0119L11.2712 14.5658L15.2002 17.5781L15.2561 17.6025C15.6131 17.7582 15.9466 17.8076 16.2515 17.7659C16.556 17.7243 16.798 17.5966 16.9797 17.4512C17.1586 17.3081 17.2812 17.1466 17.3582 17.025C17.3974 16.9633 17.4266 16.909 17.4469 16.8681C17.457 16.8476 17.465 16.8302 17.4711 16.8167L17.4786 16.7993L17.4813 16.7928L17.4823 16.7902ZM6.1342 10.875C6.1009 10.7486 6.15318 10.6153 6.26346 10.5452L16.1855 4.24432C16.1855 4.24432 16.7691 3.89002 16.7482 4.24432C16.7482 4.24432 16.8524 4.30689 16.5396 4.59861C16.243 4.87569 9.46796 11.4167 8.78242 12.0786C8.74285 12.1168 8.71923 12.1607 8.70529 12.2139L7.59948 16.4334L6.1342 10.875Z" fill="white"/>
</svg>
