<svg width="22" height="27" viewBox="0 0 22 27" fill="none" xmlns="http://www.w3.org/2000/svg">
<path d="M8.33317 0C7.78089 0 7.33317 0.447715 7.33317 1V2H1.6665C1.11422 2 0.666504 2.44772 0.666504 3C0.666504 3.55228 1.11422 4 1.6665 4H20.3332C20.8855 4 21.3332 3.55228 21.3332 3C21.3332 2.44772 20.8855 2 20.3332 2H14.6665V1C14.6665 0.447715 14.2188 0 13.6665 0H8.33317Z" fill="#313131"/>
<path d="M8.33317 11.2C8.88546 11.2 9.33317 11.6477 9.33317 12.2L9.33317 21.5333C9.33317 22.0856 8.88546 22.5333 8.33317 22.5333C7.78089 22.5333 7.33317 22.0856 7.33317 21.5333L7.33317 12.2C7.33317 11.6477 7.78089 11.2 8.33317 11.2Z" fill="#313131"/>
<path d="M14.6665 12.2C14.6665 11.6477 14.2188 11.2 13.6665 11.2C13.1142 11.2 12.6665 11.6477 12.6665 12.2V21.5333C12.6665 22.0856 13.1142 22.5333 13.6665 22.5333C14.2188 22.5333 14.6665 22.0856 14.6665 21.5333V12.2Z" fill="#313131"/>
<path fill-rule="evenodd" clip-rule="evenodd" d="M2.9884 7.55623C3.04467 7.0498 3.47274 6.66667 3.98229 6.66667H18.0174C18.5269 6.66667 18.955 7.0498 19.0113 7.55623L19.2781 9.95803C19.7619 14.3118 19.7619 18.7058 19.2781 23.0595L19.2519 23.296C19.0598 25.0242 17.7204 26.4022 15.9984 26.6433C12.6822 27.1076 9.31747 27.1076 6.00127 26.6433C4.27923 26.4022 2.93983 25.0242 2.74781 23.296L2.72154 23.0595C2.23779 18.7057 2.23779 14.3118 2.72154 9.95803L2.9884 7.55623ZM4.87733 8.66667L4.70931 10.1789C4.24186 14.3859 4.24186 18.6317 4.7093 22.8386L4.73558 23.0751C4.82665 23.8947 5.46187 24.5483 6.27857 24.6626C9.4108 25.1011 12.5889 25.1011 15.7211 24.6626C16.5378 24.5483 17.173 23.8947 17.2641 23.0751L17.2904 22.8387C17.7578 18.6317 17.7578 14.3859 17.2904 10.1789L17.1223 8.66667H4.87733Z" fill="#313131"/>
</svg>
