<svg width="10" height="10" viewBox="0 0 10 10" fill="none" xmlns="http://www.w3.org/2000/svg">
<path d="M5.62516 0.833496C5.62516 0.488318 5.34534 0.208496 5.00016 0.208496C4.65498 0.208496 4.37516 0.488318 4.37516 0.833496V4.37516H0.833496C0.488318 4.37516 0.208496 4.65498 0.208496 5.00016C0.208496 5.34534 0.488318 5.62516 0.833496 5.62516H4.37516V9.16683C4.37516 9.51201 4.65498 9.79183 5.00016 9.79183C5.34534 9.79183 5.62516 9.51201 5.62516 9.16683V5.62516H9.16683C9.51201 5.62516 9.79183 5.34534 9.79183 5.00016C9.79183 4.65498 9.51201 4.37516 9.16683 4.37516H5.62516V0.833496Z" fill="#DC6803"/>
</svg>
