<svg width="21" height="13" viewBox="0 0 21 13" fill="none" xmlns="http://www.w3.org/2000/svg">
<path d="M20.1695 12.381H17.888C17.0248 12.381 16.7652 11.682 15.2171 10.1339C13.866 8.83126 13.2952 8.66863 12.9528 8.66863C12.4805 8.66863 12.3507 8.79842 12.3507 9.4505V11.5021C12.3507 12.0573 12.1709 12.3825 10.7213 12.3825C9.31448 12.288 7.95023 11.8606 6.74095 11.1355C5.53166 10.4104 4.51193 9.4084 3.76576 8.21202C1.9943 6.00713 0.761712 3.41934 0.166016 0.654424C0.166016 0.311963 0.295807 0.00234121 0.947889 0.00234121H3.22783C3.81424 0.00234121 4.02534 0.263487 4.25521 0.86553C5.36235 4.12438 7.25135 6.95789 8.01759 6.95789C8.31158 6.95789 8.4398 6.8281 8.4398 6.0947V2.7389C8.34285 1.20799 7.5297 1.0782 7.5297 0.524632C7.54015 0.378623 7.60706 0.242426 7.71624 0.144922C7.82542 0.0474177 7.96829 -0.00372464 8.11454 0.00234121H11.6987C12.1881 0.00234121 12.3507 0.246286 12.3507 0.832691V5.3613C12.3507 5.85076 12.5618 6.01339 12.7088 6.01339C13.0028 6.01339 13.2296 5.85076 13.7675 5.31283C14.9229 3.90381 15.8669 2.33401 16.5697 0.652861C16.6416 0.450924 16.7775 0.278036 16.9568 0.160581C17.1361 0.0431254 17.3489 -0.0124476 17.5627 0.00234121H19.8442C20.5276 0.00234121 20.673 0.344802 20.5276 0.832691C19.698 2.6911 18.6715 4.45518 17.4658 6.0947C17.2202 6.47 17.1217 6.66547 17.4658 7.10488C17.6925 7.44734 18.4916 8.11506 19.0295 8.74994C19.8112 9.52969 20.4604 10.4319 20.9513 11.4208C21.1468 12.0557 20.82 12.381 20.1695 12.381Z" fill="white"/>
</svg>
