<svg width="25" height="23" viewBox="0 0 25 23" fill="none" xmlns="http://www.w3.org/2000/svg">
<path d="M13.5997 7.67674C13.5997 8.35648 13.0486 8.90751 12.3689 8.90751C11.6892 8.90751 11.1381 8.35648 11.1381 7.67674C11.1381 6.99701 11.6892 6.44597 12.3689 6.44597C13.0486 6.44597 13.5997 6.99701 13.5997 7.67674Z" fill="#D94545"/>
<path d="M12.3689 11.0614C12.8787 11.0614 13.292 11.4746 13.292 11.9844V18.1383C13.292 18.6481 12.8787 19.0614 12.3689 19.0614C11.8591 19.0614 11.4458 18.6481 11.4458 18.1383V11.9844C11.4458 11.4746 11.8591 11.0614 12.3689 11.0614Z" fill="#D94545"/>
<path fill-rule="evenodd" clip-rule="evenodd" d="M15.1632 1.51383C13.8192 -0.452523 10.9186 -0.452531 9.57459 1.51383L9.043 2.29161C5.71248 7.16449 2.85099 12.3419 0.496862 17.7544L0.385829 18.0097C-0.443777 19.9171 0.809594 22.0829 2.87672 22.3139C9.18519 23.019 15.5526 23.019 21.8611 22.3139C23.9282 22.0829 25.1816 19.9171 24.3519 18.0097L24.2409 17.7544C21.8868 12.3419 19.0253 7.16449 15.6948 2.29161L15.1632 1.51383ZM11.0988 2.55556C11.7096 1.66177 13.0281 1.66177 13.639 2.55557L14.1706 3.33335C17.4354 8.10999 20.2403 13.1851 22.548 18.4907L22.659 18.746C22.993 19.5141 22.4884 20.3862 21.656 20.4792C15.4838 21.169 9.25397 21.169 3.08178 20.4792C2.24942 20.3862 1.74473 19.5141 2.07878 18.746L2.18982 18.4907C4.49745 13.1851 7.30243 8.10998 10.5672 3.33334L11.0988 2.55556Z" fill="#D94545"/>
</svg>
